<?xml version="1.0" encoding="UTF-8"?>
<svg xmlns="http://www.w3.org/2000/svg" xmlns:xlink="http://www.w3.org/1999/xlink" width="720" height="420" viewBox="0 0 720 420">
<defs>
<g>
<g id="glyph-0-0-ae3962cf">
<path d="M 8.578125 0 C 8.578125 0 1.265625 0 1.265625 0 C 1.265625 0 1.265625 -10.203125 1.265625 -10.203125 C 1.265625 -10.203125 8.328125 -10.203125 8.328125 -10.203125 C 8.328125 -10.203125 8.328125 -9.0625 8.328125 -9.0625 C 8.328125 -9.0625 2.5625 -9.0625 2.5625 -9.0625 C 2.5625 -9.0625 2.5625 -5.796875 2.5625 -5.796875 C 2.5625 -5.796875 8.125 -5.796875 8.125 -5.796875 C 8.125 -5.796875 8.125 -4.640625 8.125 -4.640625 C 8.125 -4.640625 2.5625 -4.640625 2.5625 -4.640625 C 2.5625 -4.640625 2.5625 -1.140625 2.5625 -1.140625 C 2.5625 -1.140625 8.578125 -1.140625 8.578125 -1.140625 C 8.578125 -1.140625 8.578125 0 8.578125 0 Z M 8.578125 0 "/>
</g>
<g id="glyph-0-1-ae3962cf">
<path d="M 6.9375 3.046875 C 6.9375 3.046875 5.765625 3.046875 5.765625 3.046875 C 5.765625 3.046875 5.765625 -0.953125 5.765625 -0.953125 C 5.21875 -0.15625 4.515625 0.203125 3.5 0.203125 C 1.5625 0.203125 0.359375 -1.203125 0.359375 -3.578125 C 0.359375 -6.015625 1.625 -7.546875 3.5625 -7.546875 C 4.515625 -7.546875 5.34375 -7.125 5.890625 -6.359375 C 5.890625 -6.359375 5.890625 -7.34375 5.890625 -7.34375 C 5.890625 -7.34375 6.9375 -7.34375 6.9375 -7.34375 C 6.9375 -7.34375 6.9375 3.046875 6.9375 3.046875 Z M 5.765625 -3.625 C 5.765625 -5.328125 4.96875 -6.453125 3.71875 -6.453125 C 2.4375 -6.453125 1.578125 -5.359375 1.578125 -3.671875 C 1.578125 -1.953125 2.4375 -0.875 3.71875 -0.875 C 4.953125 -0.875 5.765625 -1.953125 5.765625 -3.625 Z M 5.765625 -3.625 "/>
</g>
<g id="glyph-0-2-ae3962cf">
<path d="M 6.75 0 C 6.75 0 5.703125 0 5.703125 0 C 5.703125 0 5.703125 -1.140625 5.703125 -1.140625 C 5.015625 -0.171875 4.328125 0.203125 3.25 0.203125 C 1.8125 0.203125 0.90625 -0.578125 0.90625 -1.796875 C 0.90625 -1.796875 0.90625 -7.34375 0.90625 -7.34375 C 0.90625 -7.34375 2.078125 -7.34375 2.078125 -7.34375 C 2.078125 -7.34375 2.078125 -2.25 2.078125 -2.25 C 2.078125 -1.375 2.65625 -0.8125 3.578125 -0.8125 C 4.796875 -0.8125 5.59375 -1.796875 5.59375 -3.296875 C 5.59375 -3.296875 5.59375 -7.34375 5.59375 -7.34375 C 5.59375 -7.34375 6.75 -7.34375 6.75 -7.34375 C 6.75 -7.34375 6.75 0 6.75 0 Z M 6.75 0 "/>
</g>
<g id="glyph-0-3-ae3962cf">
<path d="M 7.484375 -0.03125 C 7.109375 0.0625 6.9375 0.09375 6.6875 0.09375 C 6.125 0.09375 5.609375 -0.3125 5.484375 -0.875 C 4.84375 -0.1875 3.9375 0.203125 3 0.203125 C 1.515625 0.203125 0.59375 -0.578125 0.59375 -1.90625 C 0.59375 -2.796875 1.015625 -3.453125 1.875 -3.8125 C 2.328125 -3.984375 2.578125 -4.046875 4.234375 -4.25 C 5.15625 -4.375 5.453125 -4.578125 5.453125 -5.0625 C 5.453125 -5.0625 5.453125 -5.375 5.453125 -5.375 C 5.453125 -6.078125 4.859375 -6.46875 3.8125 -6.46875 C 2.71875 -6.46875 2.1875 -6.0625 2.09375 -5.171875 C 2.09375 -5.171875 0.90625 -5.171875 0.90625 -5.171875 C 0.984375 -6.859375 2.078125 -7.546875 3.84375 -7.546875 C 5.65625 -7.546875 6.609375 -6.84375 6.609375 -5.546875 C 6.609375 -5.546875 6.609375 -1.453125 6.609375 -1.453125 C 6.609375 -1.09375 6.828125 -0.875 7.234375 -0.875 C 7.3125 -0.875 7.359375 -0.875 7.484375 -0.90625 C 7.484375 -0.90625 7.484375 -0.03125 7.484375 -0.03125 Z M 5.453125 -2.53125 C 5.453125 -2.53125 5.453125 -3.625 5.453125 -3.625 C 5.046875 -3.4375 4.796875 -3.390625 3.5625 -3.21875 C 2.328125 -3.03125 1.8125 -2.703125 1.8125 -1.9375 C 1.8125 -1.140625 2.34375 -0.8125 3.25 -0.8125 C 4.375 -0.8125 5.453125 -1.484375 5.453125 -2.53125 Z M 5.453125 -2.53125 "/>
</g>
<g id="glyph-0-4-ae3962cf">
<path d="M 3.5625 0 C 3.15625 0.0625 2.890625 0.09375 2.609375 0.09375 C 1.6875 0.09375 1.1875 -0.328125 1.1875 -1.0625 C 1.1875 -1.0625 1.1875 -6.390625 1.1875 -6.390625 C 1.1875 -6.390625 0.203125 -6.390625 0.203125 -6.390625 C 0.203125 -6.390625 0.203125 -7.34375 0.203125 -7.34375 C 0.203125 -7.34375 1.1875 -7.34375 1.1875 -7.34375 C 1.1875 -7.34375 1.1875 -9.359375 1.1875 -9.359375 C 1.1875 -9.359375 2.359375 -9.359375 2.359375 -9.359375 C 2.359375 -9.359375 2.359375 -7.34375 2.359375 -7.34375 C 2.359375 -7.34375 3.5625 -7.34375 3.5625 -7.34375 C 3.5625 -7.34375 3.5625 -6.390625 3.5625 -6.390625 C 3.5625 -6.390625 2.359375 -6.390625 2.359375 -6.390625 C 2.359375 -6.390625 2.359375 -1.578125 2.359375 -1.578125 C 2.359375 -1.0625 2.484375 -0.921875 3 -0.921875 C 3.21875 -0.921875 3.40625 -0.9375 3.5625 -0.984375 C 3.5625 -0.984375 3.5625 0 3.5625 0 Z M 3.5625 0 "/>
</g>
<g id="glyph-0-5-ae3962cf">
<path d="M 2.140625 0 C 2.140625 0 0.984375 0 0.984375 0 C 0.984375 0 0.984375 -7.34375 0.984375 -7.34375 C 0.984375 -7.34375 2.140625 -7.34375 2.140625 -7.34375 C 2.140625 -7.34375 2.140625 0 2.140625 0 Z M 2.296875 -8.4375 C 2.296875 -8.4375 0.84375 -8.4375 0.84375 -8.4375 C 0.84375 -8.4375 0.84375 -9.890625 0.84375 -9.890625 C 0.84375 -9.890625 2.296875 -9.890625 2.296875 -9.890625 C 2.296875 -9.890625 2.296875 -8.4375 2.296875 -8.4375 Z M 2.296875 -8.4375 "/>
</g>
<g id="glyph-0-6-ae3962cf">
<path d="M 7.140625 -3.609375 C 7.140625 -1.203125 5.875 0.203125 3.828125 0.203125 C 1.734375 0.203125 0.5 -1.203125 0.5 -3.671875 C 0.5 -6.125 1.75 -7.546875 3.8125 -7.546875 C 5.921875 -7.546875 7.140625 -6.140625 7.140625 -3.609375 Z M 5.921875 -3.625 C 5.921875 -5.453125 5.140625 -6.46875 3.828125 -6.46875 C 2.515625 -6.46875 1.71875 -5.4375 1.71875 -3.671875 C 1.71875 -1.890625 2.515625 -0.875 3.828125 -0.875 C 5.109375 -0.875 5.921875 -1.90625 5.921875 -3.625 Z M 5.921875 -3.625 "/>
</g>
<g id="glyph-0-7-ae3962cf">
<path d="M 6.8125 0 C 6.8125 0 5.65625 0 5.65625 0 C 5.65625 0 5.65625 -5.078125 5.65625 -5.078125 C 5.65625 -5.96875 5.0625 -6.53125 4.140625 -6.53125 C 2.953125 -6.53125 2.140625 -5.546875 2.140625 -4.046875 C 2.140625 -4.046875 2.140625 0 2.140625 0 C 2.140625 0 0.984375 0 0.984375 0 C 0.984375 0 0.984375 -7.34375 0.984375 -7.34375 C 0.984375 -7.34375 2.0625 -7.34375 2.0625 -7.34375 C 2.0625 -7.34375 2.0625 -6.109375 2.0625 -6.109375 C 2.703125 -7.125 3.40625 -7.546875 4.5 -7.546875 C 5.90625 -7.546875 6.8125 -6.765625 6.8125 -5.546875 C 6.8125 -5.546875 6.8125 0 6.8125 0 Z M 6.8125 0 "/>
</g>
<g id="glyph-0-8-ae3962cf">
</g>
<g id="glyph-0-9-ae3962cf">
<path d="M 3.609375 -6.390625 C 3.609375 -6.390625 2.390625 -6.390625 2.390625 -6.390625 C 2.390625 -6.390625 2.390625 0 2.390625 0 C 2.390625 0 1.234375 0 1.234375 0 C 1.234375 0 1.234375 -6.390625 1.234375 -6.390625 C 1.234375 -6.390625 0.25 -6.390625 0.25 -6.390625 C 0.25 -6.390625 0.25 -7.34375 0.25 -7.34375 C 0.25 -7.34375 1.234375 -7.34375 1.234375 -7.34375 C 1.234375 -7.34375 1.234375 -8.578125 1.234375 -8.578125 C 1.234375 -9.625 1.875 -10.25 2.953125 -10.25 C 3.1875 -10.25 3.34375 -10.234375 3.609375 -10.171875 C 3.609375 -10.171875 3.609375 -9.21875 3.609375 -9.21875 C 3.34375 -9.21875 3.296875 -9.21875 3.203125 -9.21875 C 2.671875 -9.21875 2.390625 -8.96875 2.390625 -8.484375 C 2.390625 -8.484375 2.390625 -7.34375 2.390625 -7.34375 C 2.390625 -7.34375 3.609375 -7.34375 3.609375 -7.34375 C 3.609375 -7.34375 3.609375 -6.390625 3.609375 -6.390625 Z M 3.609375 -6.390625 "/>
</g>
<g id="glyph-0-10-ae3962cf">
<path d="M 6.421875 -2.0625 C 6.421875 -0.640625 5.25 0.203125 3.40625 0.203125 C 1.484375 0.203125 0.53125 -0.546875 0.46875 -2.234375 C 0.46875 -2.234375 1.703125 -2.234375 1.703125 -2.234375 C 1.859375 -1.125 2.453125 -0.875 3.5 -0.875 C 4.515625 -0.875 5.203125 -1.28125 5.203125 -1.953125 C 5.203125 -2.484375 4.890625 -2.734375 4.078125 -2.921875 C 4.078125 -2.921875 2.984375 -3.1875 2.984375 -3.1875 C 1.25 -3.609375 0.65625 -4.15625 0.65625 -5.3125 C 0.65625 -6.65625 1.765625 -7.546875 3.46875 -7.546875 C 5.171875 -7.546875 6.125 -6.734375 6.125 -5.296875 C 6.125 -5.296875 4.90625 -5.296875 4.90625 -5.296875 C 4.875 -6.0625 4.375 -6.46875 3.4375 -6.46875 C 2.484375 -6.46875 1.875 -6.03125 1.875 -5.359375 C 1.875 -4.84375 2.28125 -4.53125 3.234375 -4.3125 C 3.234375 -4.3125 4.359375 -4.046875 4.359375 -4.046875 C 5.8125 -3.703125 6.421875 -3.15625 6.421875 -2.0625 Z M 6.421875 -2.0625 "/>
</g>
<g id="glyph-0-11-ae3962cf">
<path d="M 7.1875 -3.328125 C 7.1875 -3.328125 1.78125 -3.328125 1.78125 -3.328125 C 1.8125 -1.65625 2.71875 -0.875 3.9375 -0.875 C 4.875 -0.875 5.53125 -1.265625 5.859375 -2.21875 C 5.859375 -2.21875 7.03125 -2.21875 7.03125 -2.21875 C 6.734375 -0.734375 5.578125 0.203125 3.890625 0.203125 C 1.828125 0.203125 0.5625 -1.21875 0.5625 -3.625 C 0.5625 -6.03125 1.875 -7.546875 3.921875 -7.546875 C 5.296875 -7.546875 6.40625 -6.8125 6.890625 -5.609375 C 7.09375 -5.0625 7.1875 -4.390625 7.1875 -3.328125 Z M 5.9375 -4.375 C 5.9375 -5.515625 5.046875 -6.46875 3.90625 -6.46875 C 2.734375 -6.46875 1.90625 -5.59375 1.8125 -4.28125 C 1.8125 -4.28125 5.921875 -4.28125 5.921875 -4.28125 C 5.9375 -4.3125 5.9375 -4.375 5.9375 -4.375 Z M 5.9375 -4.375 "/>
</g>
<g id="glyph-0-12-ae3962cf">
<path d="M 8.640625 -7.203125 C 8.640625 -5.515625 7.46875 -4.328125 5.78125 -4.328125 C 5.78125 -4.328125 2.578125 -4.328125 2.578125 -4.328125 C 2.578125 -4.328125 2.578125 0 2.578125 0 C 2.578125 0 1.28125 0 1.28125 0 C 1.28125 0 1.28125 -10.203125 1.28125 -10.203125 C 1.28125 -10.203125 5.484375 -10.203125 5.484375 -10.203125 C 7.5 -10.203125 8.640625 -9.125 8.640625 -7.203125 Z M 7.28125 -7.265625 C 7.28125 -8.390625 6.53125 -9.0625 5.296875 -9.0625 C 5.296875 -9.0625 2.578125 -9.0625 2.578125 -9.0625 C 2.578125 -9.0625 2.578125 -5.46875 2.578125 -5.46875 C 2.578125 -5.46875 5.296875 -5.46875 5.296875 -5.46875 C 6.53125 -5.46875 7.28125 -6.140625 7.28125 -7.265625 Z M 7.28125 -7.265625 "/>
</g>
<g id="glyph-0-13-ae3962cf">
<path d="M 9.5 0 C 9.5 0 7.921875 0 7.921875 0 C 7.734375 -0.421875 7.609375 -1.03125 7.625 -1.671875 C 7.625 -1.671875 7.640625 -2.578125 7.640625 -2.578125 C 7.65625 -3.84375 7.109375 -4.390625 5.96875 -4.390625 C 5.96875 -4.390625 2.609375 -4.390625 2.609375 -4.390625 C 2.609375 -4.390625 2.609375 0 2.609375 0 C 2.609375 0 1.296875 0 1.296875 0 C 1.296875 0 1.296875 -10.203125 1.296875 -10.203125 C 1.296875 -10.203125 6 -10.203125 6 -10.203125 C 8.015625 -10.203125 9.109375 -9.234375 9.109375 -7.46875 C 9.109375 -6.3125 8.65625 -5.59375 7.5 -5.046875 C 8.609375 -4.5625 8.859375 -4.0625 8.890625 -2.375 C 8.90625 -1.015625 9.015625 -0.65625 9.5 -0.328125 C 9.5 -0.328125 9.5 0 9.5 0 Z M 7.75 -7.296875 C 7.75 -8.4375 7.203125 -9.0625 5.75 -9.0625 C 5.75 -9.0625 2.609375 -9.0625 2.609375 -9.0625 C 2.609375 -9.0625 2.609375 -5.546875 2.609375 -5.546875 C 2.609375 -5.546875 5.75 -5.546875 5.75 -5.546875 C 7.140625 -5.546875 7.75 -6.09375 7.75 -7.296875 Z M 7.75 -7.296875 "/>
</g>
<g id="glyph-0-14-ae3962cf">
<path d="M 7.28125 -8.6875 C 5.1875 -6.203125 3.796875 -3.203125 3.25 0 C 3.25 0 1.9375 0 1.9375 0 C 2.625 -3.109375 4.03125 -6 6 -8.5 C 6 -8.5 0.640625 -8.5 0.640625 -8.5 C 0.640625 -8.5 0.640625 -9.71875 0.640625 -9.71875 C 0.640625 -9.71875 7.28125 -9.71875 7.28125 -9.71875 C 7.28125 -9.71875 7.28125 -8.6875 7.28125 -8.6875 Z M 7.28125 -8.6875 "/>
</g>
<g id="glyph-0-15-ae3962cf">
<path d="M 7.1875 -3.078125 C 7.1875 -1.140625 5.828125 0.203125 3.9375 0.203125 C 1.671875 0.203125 0.609375 -1.421875 0.609375 -4.515625 C 0.609375 -7.984375 1.84375 -9.921875 4.15625 -9.921875 C 5.671875 -9.921875 6.734375 -8.953125 6.96875 -7.34375 C 6.96875 -7.34375 5.734375 -7.34375 5.734375 -7.34375 C 5.546875 -8.28125 4.9375 -8.828125 4.078125 -8.828125 C 2.65625 -8.828125 1.875 -7.484375 1.859375 -5.0625 C 2.390625 -5.796875 3.15625 -6.171875 4.140625 -6.171875 C 5.921875 -6.171875 7.1875 -4.921875 7.1875 -3.078125 Z M 5.921875 -2.984375 C 5.921875 -4.3125 5.1875 -5.078125 3.984375 -5.078125 C 2.765625 -5.078125 1.9375 -4.28125 1.9375 -3.046875 C 1.9375 -1.78125 2.796875 -0.875 3.953125 -0.875 C 5.078125 -0.875 5.921875 -1.734375 5.921875 -2.984375 Z M 5.921875 -2.984375 "/>
</g>
<g id="glyph-0-16-ae3962cf">
<path d="M 8.6875 -2.796875 C 8.6875 -0.984375 7.296875 0.25 4.703125 0.25 C 2.296875 0.25 0.671875 -0.90625 0.671875 -3.3125 C 0.671875 -3.3125 1.90625 -3.3125 1.90625 -3.3125 C 1.90625 -1.859375 2.859375 -0.890625 4.78125 -0.890625 C 6.546875 -0.890625 7.390625 -1.546875 7.390625 -2.671875 C 7.390625 -3.46875 6.796875 -3.984375 5.515625 -4.328125 C 5.515625 -4.328125 2.984375 -5 2.984375 -5 C 1.640625 -5.34375 0.984375 -6.125 0.984375 -7.375 C 0.984375 -9.21875 2.359375 -10.453125 4.609375 -10.453125 C 6.953125 -10.453125 8.34375 -9.296875 8.34375 -7.296875 C 8.34375 -7.296875 7.109375 -7.296875 7.109375 -7.296875 C 7.109375 -8.625 6.1875 -9.359375 4.5625 -9.359375 C 3.1875 -9.359375 2.28125 -8.59375 2.28125 -7.5625 C 2.28125 -6.78125 2.734375 -6.375 3.96875 -6.046875 C 3.96875 -6.046875 6.53125 -5.359375 6.53125 -5.359375 C 7.90625 -4.984375 8.6875 -4.0625 8.6875 -2.796875 Z M 8.6875 -2.796875 "/>
</g>
<g id="glyph-0-17-ae3962cf">
<path d="M 9.21875 0 C 9.21875 0 7.671875 0 7.671875 0 C 7.671875 0 4.078125 -5.234375 4.078125 -5.234375 C 4.078125 -5.234375 2.40625 -3.5625 2.40625 -3.5625 C 2.40625 -3.5625 2.40625 0 2.40625 0 C 2.40625 0 1.109375 0 1.109375 0 C 1.109375 0 1.109375 -10.203125 1.109375 -10.203125 C 1.109375 -10.203125 2.40625 -10.203125 2.40625 -10.203125 C 2.40625 -10.203125 2.40625 -5.046875 2.40625 -5.046875 C 2.40625 -5.046875 7.484375 -10.203125 7.484375 -10.203125 C 7.484375 -10.203125 9.171875 -10.203125 9.171875 -10.203125 C 9.171875 -10.203125 5.015625 -6.046875 5.015625 -6.046875 C 5.015625 -6.046875 9.21875 0 9.21875 0 Z M 9.21875 0 "/>
</g>
<g id="glyph-0-18-ae3962cf">
<path d="M 4.859375 0 C 4.859375 0 3.625 0 3.625 0 C 3.625 0 3.625 -7.0625 3.625 -7.0625 C 3.625 -7.0625 1.421875 -7.0625 1.421875 -7.0625 C 1.421875 -7.0625 1.421875 -7.953125 1.421875 -7.953125 C 3.328125 -8.1875 3.609375 -8.40625 4.046875 -9.921875 C 4.046875 -9.921875 4.859375 -9.921875 4.859375 -9.921875 C 4.859375 -9.921875 4.859375 0 4.859375 0 Z M 4.859375 0 "/>
</g>
<g id="glyph-0-19-ae3962cf">
<path d="M 7.09375 -4.78125 C 7.09375 -1.515625 5.953125 0.203125 3.84375 0.203125 C 1.71875 0.203125 0.609375 -1.515625 0.609375 -4.859375 C 0.609375 -8.1875 1.703125 -9.921875 3.84375 -9.921875 C 6 -9.921875 7.09375 -8.21875 7.09375 -4.78125 Z M 5.84375 -4.890625 C 5.84375 -7.546875 5.1875 -8.828125 3.84375 -8.828125 C 2.515625 -8.828125 1.859375 -7.5625 1.859375 -4.84375 C 1.859375 -2.125 2.515625 -0.8125 3.828125 -0.8125 C 5.1875 -0.8125 5.84375 -2.078125 5.84375 -4.890625 Z M 5.84375 -4.890625 "/>
</g>
<g id="glyph-0-20-ae3962cf">
<path d="M 8.109375 -9.0625 C 8.109375 -9.0625 2.5625 -9.0625 2.5625 -9.0625 C 2.5625 -9.0625 2.5625 -5.796875 2.5625 -5.796875 C 2.5625 -5.796875 7.4375 -5.796875 7.4375 -5.796875 C 7.4375 -5.796875 7.4375 -4.640625 7.4375 -4.640625 C 7.4375 -4.640625 2.5625 -4.640625 2.5625 -4.640625 C 2.5625 -4.640625 2.5625 0 2.5625 0 C 2.5625 0 1.265625 0 1.265625 0 C 1.265625 0 1.265625 -10.203125 1.265625 -10.203125 C 1.265625 -10.203125 8.109375 -10.203125 8.109375 -10.203125 C 8.109375 -10.203125 8.109375 -9.0625 8.109375 -9.0625 Z M 8.109375 -9.0625 "/>
</g>
<g id="glyph-0-21-ae3962cf">
<path d="M 6.84375 -1.203125 C 6.84375 2.03125 5.859375 3.046875 3.5625 3.046875 C 1.84375 3.046875 0.765625 2.21875 0.640625 0.84375 C 0.640625 0.84375 1.828125 0.84375 1.828125 0.84375 C 1.96875 1.734375 2.6875 2.078125 3.609375 2.078125 C 4.96875 2.078125 5.765625 1.328125 5.765625 -0.609375 C 5.765625 -0.609375 5.765625 -1.109375 5.765625 -1.109375 C 5 -0.1875 4.359375 0.203125 3.4375 0.203125 C 1.703125 0.203125 0.40625 -1.28125 0.40625 -3.59375 C 0.40625 -5.984375 1.671875 -7.546875 3.53125 -7.546875 C 4.46875 -7.546875 5.1875 -7.140625 5.765625 -6.265625 C 5.765625 -6.265625 5.765625 -7.34375 5.765625 -7.34375 C 5.765625 -7.34375 6.84375 -7.34375 6.84375 -7.34375 C 6.84375 -7.34375 6.84375 -1.203125 6.84375 -1.203125 Z M 5.65625 -3.625 C 5.65625 -5.40625 4.90625 -6.46875 3.65625 -6.46875 C 2.40625 -6.46875 1.625 -5.4375 1.625 -3.671875 C 1.625 -1.890625 2.390625 -0.875 3.671875 -0.875 C 4.90625 -0.875 5.65625 -1.875 5.65625 -3.625 Z M 5.65625 -3.625 "/>
</g>
<g id="glyph-0-22-ae3962cf">
<path d="M 6.671875 -2.515625 C 6.53125 -0.84375 5.4375 0.203125 3.6875 0.203125 C 1.6875 0.203125 0.4375 -1.234375 0.4375 -3.59375 C 0.4375 -6.03125 1.71875 -7.546875 3.703125 -7.546875 C 5.328125 -7.546875 6.453125 -6.65625 6.59375 -4.875 C 6.59375 -4.875 5.421875 -4.875 5.421875 -4.875 C 5.28125 -5.890625 4.65625 -6.46875 3.6875 -6.46875 C 2.40625 -6.46875 1.65625 -5.4375 1.65625 -3.59375 C 1.65625 -1.859375 2.421875 -0.875 3.703125 -0.875 C 4.703125 -0.875 5.3125 -1.34375 5.5 -2.515625 C 5.5 -2.515625 6.671875 -2.515625 6.671875 -2.515625 Z M 6.671875 -2.515625 "/>
</g>
<g id="glyph-0-23-ae3962cf">
<path d="M 6.6875 -7.34375 C 6.6875 -7.34375 3.4375 1.546875 3.4375 1.546875 C 3.03125 2.59375 2.359375 3.046875 1.546875 3.046875 C 1.234375 3.046875 1 3 0.75 2.875 C 0.75 2.875 0.75 1.8125 0.75 1.8125 C 1.015625 1.875 1.203125 1.90625 1.375 1.90625 C 1.875 1.90625 2.109375 1.703125 2.3125 1.1875 C 2.3125 1.1875 2.765625 0.03125 2.765625 0.03125 C 2.765625 0.03125 0.28125 -7.34375 0.28125 -7.34375 C 0.28125 -7.34375 1.53125 -7.34375 1.53125 -7.34375 C 1.53125 -7.34375 3.40625 -1.625 3.40625 -1.625 C 3.40625 -1.625 5.4375 -7.34375 5.4375 -7.34375 C 5.4375 -7.34375 6.6875 -7.34375 6.6875 -7.34375 Z M 6.6875 -7.34375 "/>
</g>
<g id="glyph-1-0-ae3962cf">
<path d="M 0 -10.65625 C 0 -10.65625 0 -9.421875 0 -9.421875 C 0 -9.421875 -8.546875 -9.421875 -8.546875 -9.421875 C -8.546875 -9.421875 0 -6.546875 0 -6.546875 C 0 -6.546875 0 -5.1875 0 -5.1875 C 0 -5.1875 -8.546875 -2.28125 -8.546875 -2.28125 C -8.546875 -2.28125 0 -2.28125 0 -2.28125 C 0 -2.28125 0 -1.046875 0 -1.046875 C 0 -1.046875 -10.203125 -1.046875 -10.203125 -1.046875 C -10.203125 -1.046875 -10.203125 -2.859375 -10.203125 -2.859375 C -10.203125 -2.859375 -1.3125 -5.875 -1.3125 -5.875 C -1.3125 -5.875 -10.203125 -8.84375 -10.203125 -8.84375 C -10.203125 -8.84375 -10.203125 -10.65625 -10.203125 -10.65625 C -10.203125 -10.65625 0 -10.65625 0 -10.65625 Z M 0 -10.65625 "/>
</g>
<g id="glyph-1-1-ae3962cf">
<path d="M -6.3125 -4.5 C -6.28125 -2.6875 -5.453125 -2.140625 -3.8125 -2.140625 C -3.8125 -2.140625 0 -2.140625 0 -2.140625 C 0 -2.140625 0 -0.984375 0 -0.984375 C 0 -0.984375 -7.34375 -0.984375 -7.34375 -0.984375 C -7.34375 -0.984375 -7.34375 -2.046875 -7.34375 -2.046875 C -7.34375 -2.046875 -6 -2.046875 -6 -2.046875 C -7.09375 -2.71875 -7.546875 -3.296875 -7.546875 -4.046875 C -7.546875 -4.203125 -7.53125 -4.296875 -7.5 -4.5 C -7.5 -4.5 -6.3125 -4.5 -6.3125 -4.5 Z M -6.3125 -4.5 "/>
</g>
<g id="glyph-2-0-ae3962cf">
<path d="M -0.03125 -7.484375 C 0.0625 -7.109375 0.09375 -6.9375 0.09375 -6.6875 C 0.09375 -6.125 -0.3125 -5.609375 -0.875 -5.484375 C -0.1875 -4.84375 0.203125 -3.9375 0.203125 -3 C 0.203125 -1.515625 -0.578125 -0.59375 -1.90625 -0.59375 C -2.796875 -0.59375 -3.453125 -1.015625 -3.8125 -1.875 C -3.984375 -2.328125 -4.046875 -2.578125 -4.25 -4.234375 C -4.375 -5.15625 -4.578125 -5.453125 -5.0625 -5.453125 C -5.0625 -5.453125 -5.375 -5.453125 -5.375 -5.453125 C -6.078125 -5.453125 -6.46875 -4.859375 -6.46875 -3.8125 C -6.46875 -2.71875 -6.0625 -2.1875 -5.171875 -2.09375 C -5.171875 -2.09375 -5.171875 -0.90625 -5.171875 -0.90625 C -6.859375 -0.984375 -7.546875 -2.078125 -7.546875 -3.84375 C -7.546875 -5.65625 -6.84375 -6.609375 -5.546875 -6.609375 C -5.546875 -6.609375 -1.453125 -6.609375 -1.453125 -6.609375 C -1.09375 -6.609375 -0.875 -6.828125 -0.875 -7.234375 C -0.875 -7.3125 -0.875 -7.359375 -0.90625 -7.484375 C -0.90625 -7.484375 -0.03125 -7.484375 -0.03125 -7.484375 Z M -2.53125 -5.453125 C -2.53125 -5.453125 -3.625 -5.453125 -3.625 -5.453125 C -3.4375 -5.046875 -3.390625 -4.796875 -3.21875 -3.5625 C -3.03125 -2.328125 -2.703125 -1.8125 -1.9375 -1.8125 C -1.140625 -1.8125 -0.8125 -2.34375 -0.8125 -3.25 C -0.8125 -4.375 -1.484375 -5.453125 -2.53125 -5.453125 Z M -2.53125 -5.453125 "/>
</g>
<g id="glyph-2-1-ae3962cf">
<path d="M 0 -2.109375 C 0 -2.109375 0 -0.953125 0 -0.953125 C 0 -0.953125 -10.203125 -0.953125 -10.203125 -0.953125 C -10.203125 -0.953125 -10.203125 -2.109375 -10.203125 -2.109375 C -10.203125 -2.109375 0 -2.109375 0 -2.109375 Z M 0 -2.109375 "/>
</g>
<g id="glyph-3-0-ae3962cf">
<path d="M 0 -6.625 C 0 -6.625 0 -5.265625 0 -5.265625 C 0 -5.265625 -2.8125 -3.4375 -2.8125 -3.4375 C -2.8125 -3.4375 0 -1.5625 0 -1.5625 C 0 -1.5625 0 -0.234375 0 -0.234375 C 0 -0.234375 -3.734375 -2.828125 -3.734375 -2.828125 C -3.734375 -2.828125 -7.34375 -0.375 -7.34375 -0.375 C -7.34375 -0.375 -7.34375 -1.703125 -7.34375 -1.703125 C -7.34375 -1.703125 -4.671875 -3.46875 -4.671875 -3.46875 C -4.671875 -3.46875 -7.34375 -5.234375 -7.34375 -5.234375 C -7.34375 -5.234375 -7.34375 -6.546875 -7.34375 -6.546875 C -7.34375 -6.546875 -3.796875 -4.09375 -3.796875 -4.09375 C -3.796875 -4.09375 0 -6.625 0 -6.625 Z M 0 -6.625 "/>
</g>
<g id="glyph-3-1-ae3962cf">
</g>
<g id="glyph-4-0-ae3962cf">
<path d="M 0 -2.140625 C 0 -2.140625 0 -0.984375 0 -0.984375 C 0 -0.984375 -7.34375 -0.984375 -7.34375 -0.984375 C -7.34375 -0.984375 -7.34375 -2.140625 -7.34375 -2.140625 C -7.34375 -2.140625 0 -2.140625 0 -2.140625 Z M -8.4375 -2.296875 C -8.4375 -2.296875 -8.4375 -0.84375 -8.4375 -0.84375 C -8.4375 -0.84375 -9.890625 -0.84375 -9.890625 -0.84375 C -9.890625 -0.84375 -9.890625 -2.296875 -9.890625 -2.296875 C -9.890625 -2.296875 -8.4375 -2.296875 -8.4375 -2.296875 Z M -8.4375 -2.296875 "/>
</g>
<g id="glyph-4-1-ae3962cf">
<path d="M 0 -10.640625 C 0 -10.640625 0 -9.484375 0 -9.484375 C 0 -9.484375 -5.046875 -9.484375 -5.046875 -9.484375 C -5.984375 -9.484375 -6.53125 -8.984375 -6.53125 -8.140625 C -6.53125 -7.1875 -5.671875 -6.390625 -4.609375 -6.390625 C -4.609375 -6.390625 0 -6.390625 0 -6.390625 C 0 -6.390625 0 -5.234375 0 -5.234375 C 0 -5.234375 -5.046875 -5.234375 -5.046875 -5.234375 C -5.984375 -5.234375 -6.53125 -4.75 -6.53125 -3.875 C -6.53125 -2.921875 -5.671875 -2.15625 -4.609375 -2.15625 C -4.609375 -2.15625 0 -2.15625 0 -2.15625 C 0 -2.15625 0 -1 0 -1 C 0 -1 -7.34375 -1 -7.34375 -1 C -7.34375 -1 -7.34375 -2.0625 -7.34375 -2.0625 C -7.34375 -2.0625 -6.296875 -2.0625 -6.296875 -2.0625 C -7.1875 -2.6875 -7.546875 -3.328125 -7.546875 -4.3125 C -7.546875 -5.265625 -7.203125 -5.859375 -6.421875 -6.28125 C -7.25 -6.96875 -7.546875 -7.5625 -7.546875 -8.546875 C -7.546875 -9.90625 -6.8125 -10.640625 -5.5 -10.640625 C -5.5 -10.640625 0 -10.640625 0 -10.640625 Z M 0 -10.640625 "/>
</g>
<g id="glyph-5-0-ae3962cf">
<path d="M 0 -6.75 C 0 -6.75 0 -5.703125 0 -5.703125 C 0 -5.703125 -1.140625 -5.703125 -1.140625 -5.703125 C -0.171875 -5.015625 0.203125 -4.328125 0.203125 -3.25 C 0.203125 -1.8125 -0.578125 -0.90625 -1.796875 -0.90625 C -1.796875 -0.90625 -7.34375 -0.90625 -7.34375 -0.90625 C -7.34375 -0.90625 -7.34375 -2.078125 -7.34375 -2.078125 C -7.34375 -2.078125 -2.25 -2.078125 -2.25 -2.078125 C -1.375 -2.078125 -0.8125 -2.65625 -0.8125 -3.578125 C -0.8125 -4.796875 -1.796875 -5.59375 -3.296875 -5.59375 C -3.296875 -5.59375 -7.34375 -5.59375 -7.34375 -5.59375 C -7.34375 -5.59375 -7.34375 -6.75 -7.34375 -6.75 C -7.34375 -6.75 0 -6.75 0 -6.75 Z M 0 -6.75 "/>
</g>
<g id="glyph-5-1-ae3962cf">
<path d="M 0 -3.5625 C 0.0625 -3.15625 0.09375 -2.890625 0.09375 -2.609375 C 0.09375 -1.6875 -0.328125 -1.1875 -1.0625 -1.1875 C -1.0625 -1.1875 -6.390625 -1.1875 -6.390625 -1.1875 C -6.390625 -1.1875 -6.390625 -0.203125 -6.390625 -0.203125 C -6.390625 -0.203125 -7.34375 -0.203125 -7.34375 -0.203125 C -7.34375 -0.203125 -7.34375 -1.1875 -7.34375 -1.1875 C -7.34375 -1.1875 -9.359375 -1.1875 -9.359375 -1.1875 C -9.359375 -1.1875 -9.359375 -2.359375 -9.359375 -2.359375 C -9.359375 -2.359375 -7.34375 -2.359375 -7.34375 -2.359375 C -7.34375 -2.359375 -7.34375 -3.5625 -7.34375 -3.5625 C -7.34375 -3.5625 -6.390625 -3.5625 -6.390625 -3.5625 C -6.390625 -3.5625 -6.390625 -2.359375 -6.390625 -2.359375 C -6.390625 -2.359375 -1.578125 -2.359375 -1.578125 -2.359375 C -1.0625 -2.359375 -0.921875 -2.484375 -0.921875 -3 C -0.921875 -3.21875 -0.9375 -3.40625 -0.984375 -3.5625 C -0.984375 -3.5625 0 -3.5625 0 -3.5625 Z M 0 -3.5625 "/>
</g>
<g id="glyph-5-2-ae3962cf">
<path d="M -3.328125 -7.1875 C -3.328125 -7.1875 -3.328125 -1.78125 -3.328125 -1.78125 C -1.65625 -1.8125 -0.875 -2.71875 -0.875 -3.9375 C -0.875 -4.875 -1.265625 -5.53125 -2.21875 -5.859375 C -2.21875 -5.859375 -2.21875 -7.03125 -2.21875 -7.03125 C -0.734375 -6.734375 0.203125 -5.578125 0.203125 -3.890625 C 0.203125 -1.828125 -1.21875 -0.5625 -3.625 -0.5625 C -6.03125 -0.5625 -7.546875 -1.875 -7.546875 -3.921875 C -7.546875 -5.296875 -6.8125 -6.40625 -5.609375 -6.890625 C -5.0625 -7.09375 -4.390625 -7.1875 -3.328125 -7.1875 Z M -4.375 -5.9375 C -5.515625 -5.9375 -6.46875 -5.046875 -6.46875 -3.90625 C -6.46875 -2.734375 -5.59375 -1.90625 -4.28125 -1.8125 C -4.28125 -1.8125 -4.28125 -5.921875 -4.28125 -5.921875 C -4.3125 -5.9375 -4.375 -5.9375 -4.375 -5.9375 Z M -4.375 -5.9375 "/>
</g>
<g id="glyph-6-0-ae3962cf">
<path d="M 0 -10.640625 C 0 -10.640625 0 -9.484375 0 -9.484375 C 0 -9.484375 -5.046875 -9.484375 -5.046875 -9.484375 C -5.984375 -9.484375 -6.53125 -8.984375 -6.53125 -8.140625 C -6.53125 -7.1875 -5.671875 -6.390625 -4.609375 -6.390625 C -4.609375 -6.390625 0 -6.390625 0 -6.390625 C 0 -6.390625 0 -5.234375 0 -5.234375 C 0 -5.234375 -5.046875 -5.234375 -5.046875 -5.234375 C -5.984375 -5.234375 -6.53125 -4.75 -6.53125 -3.875 C -6.53125 -2.921875 -5.671875 -2.15625 -4.609375 -2.15625 C -4.609375 -2.15625 0 -2.15625 0 -2.15625 C 0 -2.15625 0 -1 0 -1 C 0 -1 -7.34375 -1 -7.34375 -1 C -7.34375 -1 -7.34375 -2.0625 -7.34375 -2.0625 C -7.34375 -2.0625 -6.296875 -2.0625 -6.296875 -2.0625 C -7.1875 -2.6875 -7.546875 -3.328125 -7.546875 -4.3125 C -7.546875 -5.265625 -7.203125 -5.859375 -6.421875 -6.28125 C -7.25 -6.96875 -7.546875 -7.5625 -7.546875 -8.546875 C -7.546875 -9.90625 -6.8125 -10.640625 -5.5 -10.640625 C -5.5 -10.640625 0 -10.640625 0 -10.640625 Z M 0 -10.640625 "/>
</g>
<g id="glyph-7-0-ae3962cf">
<path d="M -6.3125 -4.5 C -6.28125 -2.6875 -5.453125 -2.140625 -3.8125 -2.140625 C -3.8125 -2.140625 0 -2.140625 0 -2.140625 C 0 -2.140625 0 -0.984375 0 -0.984375 C 0 -0.984375 -7.34375 -0.984375 -7.34375 -0.984375 C -7.34375 -0.984375 -7.34375 -2.046875 -7.34375 -2.046875 C -7.34375 -2.046875 -6 -2.046875 -6 -2.046875 C -7.09375 -2.71875 -7.546875 -3.296875 -7.546875 -4.046875 C -7.546875 -4.203125 -7.53125 -4.296875 -7.5 -4.5 C -7.5 -4.5 -6.3125 -4.5 -6.3125 -4.5 Z M -6.3125 -4.5 "/>
</g>
<g id="glyph-8-0-ae3962cf">
<path d="M -3.328125 -7.1875 C -3.328125 -7.1875 -3.328125 -1.78125 -3.328125 -1.78125 C -1.65625 -1.8125 -0.875 -2.71875 -0.875 -3.9375 C -0.875 -4.875 -1.265625 -5.53125 -2.21875 -5.859375 C -2.21875 -5.859375 -2.21875 -7.03125 -2.21875 -7.03125 C -0.734375 -6.734375 0.203125 -5.578125 0.203125 -3.890625 C 0.203125 -1.828125 -1.21875 -0.5625 -3.625 -0.5625 C -6.03125 -0.5625 -7.546875 -1.875 -7.546875 -3.921875 C -7.546875 -5.296875 -6.8125 -6.40625 -5.609375 -6.890625 C -5.0625 -7.09375 -4.390625 -7.1875 -3.328125 -7.1875 Z M -4.375 -5.9375 C -5.515625 -5.9375 -6.46875 -5.046875 -6.46875 -3.90625 C -6.46875 -2.734375 -5.59375 -1.90625 -4.28125 -1.8125 C -4.28125 -1.8125 -4.28125 -5.921875 -4.28125 -5.921875 C -4.3125 -5.9375 -4.375 -5.9375 -4.375 -5.9375 Z M -4.375 -5.9375 "/>
</g>
<g id="glyph-9-0-ae3962cf">
<path d="M -0.03125 -7.484375 C 0.0625 -7.109375 0.09375 -6.9375 0.09375 -6.6875 C 0.09375 -6.125 -0.3125 -5.609375 -0.875 -5.484375 C -0.1875 -4.84375 0.203125 -3.9375 0.203125 -3 C 0.203125 -1.515625 -0.578125 -0.59375 -1.90625 -0.59375 C -2.796875 -0.59375 -3.453125 -1.015625 -3.8125 -1.875 C -3.984375 -2.328125 -4.046875 -2.578125 -4.25 -4.234375 C -4.375 -5.15625 -4.578125 -5.453125 -5.0625 -5.453125 C -5.0625 -5.453125 -5.375 -5.453125 -5.375 -5.453125 C -6.078125 -5.453125 -6.46875 -4.859375 -6.46875 -3.8125 C -6.46875 -2.71875 -6.0625 -2.1875 -5.171875 -2.09375 C -5.171875 -2.09375 -5.171875 -0.90625 -5.171875 -0.90625 C -6.859375 -0.984375 -7.546875 -2.078125 -7.546875 -3.84375 C -7.546875 -5.65625 -6.84375 -6.609375 -5.546875 -6.609375 C -5.546875 -6.609375 -1.453125 -6.609375 -1.453125 -6.609375 C -1.09375 -6.609375 -0.875 -6.828125 -0.875 -7.234375 C -0.875 -7.3125 -0.875 -7.359375 -0.90625 -7.484375 C -0.90625 -7.484375 -0.03125 -7.484375 -0.03125 -7.484375 Z M -2.53125 -5.453125 C -2.53125 -5.453125 -3.625 -5.453125 -3.625 -5.453125 C -3.4375 -5.046875 -3.390625 -4.796875 -3.21875 -3.5625 C -3.03125 -2.328125 -2.703125 -1.8125 -1.9375 -1.8125 C -1.140625 -1.8125 -0.8125 -2.34375 -0.8125 -3.25 C -0.8125 -4.375 -1.484375 -5.453125 -2.53125 -5.453125 Z M -2.53125 -5.453125 "/>
</g>
<g id="glyph-10-0-ae3962cf">
<path d="M -7.34375 -6.796875 C -7.34375 -6.796875 0 -3.984375 0 -3.984375 C 0 -3.984375 0 -2.71875 0 -2.71875 C 0 -2.71875 -7.34375 -0.140625 -7.34375 -0.140625 C -7.34375 -0.140625 -7.34375 -1.453125 -7.34375 -1.453125 C -7.34375 -1.453125 -1.390625 -3.421875 -1.390625 -3.421875 C -1.390625 -3.421875 -7.34375 -5.484375 -7.34375 -5.484375 C -7.34375 -5.484375 -7.34375 -6.796875 -7.34375 -6.796875 Z M -7.34375 -6.796875 "/>
</g>
<g id="glyph-11-0-ae3962cf">
</g>
<g id="glyph-12-0-ae3962cf">
<path d="M -3.328125 -7.1875 C -3.328125 -7.1875 -3.328125 -1.78125 -3.328125 -1.78125 C -1.65625 -1.8125 -0.875 -2.71875 -0.875 -3.9375 C -0.875 -4.875 -1.265625 -5.53125 -2.21875 -5.859375 C -2.21875 -5.859375 -2.21875 -7.03125 -2.21875 -7.03125 C -0.734375 -6.734375 0.203125 -5.578125 0.203125 -3.890625 C 0.203125 -1.828125 -1.21875 -0.5625 -3.625 -0.5625 C -6.03125 -0.5625 -7.546875 -1.875 -7.546875 -3.921875 C -7.546875 -5.296875 -6.8125 -6.40625 -5.609375 -6.890625 C -5.0625 -7.09375 -4.390625 -7.1875 -3.328125 -7.1875 Z M -4.375 -5.9375 C -5.515625 -5.9375 -6.46875 -5.046875 -6.46875 -3.90625 C -6.46875 -2.734375 -5.59375 -1.90625 -4.28125 -1.8125 C -4.28125 -1.8125 -4.28125 -5.921875 -4.28125 -5.921875 C -4.3125 -5.9375 -4.375 -5.9375 -4.375 -5.9375 Z M -4.375 -5.9375 "/>
</g>
<g id="glyph-13-0-ae3962cf">
<path d="M -6.3125 -4.5 C -6.28125 -2.6875 -5.453125 -2.140625 -3.8125 -2.140625 C -3.8125 -2.140625 0 -2.140625 0 -2.140625 C 0 -2.140625 0 -0.984375 0 -0.984375 C 0 -0.984375 -7.34375 -0.984375 -7.34375 -0.984375 C -7.34375 -0.984375 -7.34375 -2.046875 -7.34375 -2.046875 C -7.34375 -2.046875 -6 -2.046875 -6 -2.046875 C -7.09375 -2.71875 -7.546875 -3.296875 -7.546875 -4.046875 C -7.546875 -4.203125 -7.53125 -4.296875 -7.5 -4.5 C -7.5 -4.5 -6.3125 -4.5 -6.3125 -4.5 Z M -6.3125 -4.5 "/>
</g>
<g id="glyph-14-0-ae3962cf">
<path d="M -3.609375 -7.140625 C -1.203125 -7.140625 0.203125 -5.875 0.203125 -3.828125 C 0.203125 -1.734375 -1.203125 -0.5 -3.671875 -0.5 C -6.125 -0.5 -7.546875 -1.75 -7.546875 -3.8125 C -7.546875 -5.921875 -6.140625 -7.140625 -3.609375 -7.140625 Z M -3.625 -5.921875 C -5.453125 -5.921875 -6.46875 -5.140625 -6.46875 -3.828125 C -6.46875 -2.515625 -5.4375 -1.71875 -3.671875 -1.71875 C -1.890625 -1.71875 -0.875 -2.515625 -0.875 -3.828125 C -0.875 -5.109375 -1.90625 -5.921875 -3.625 -5.921875 Z M -3.625 -5.921875 "/>
</g>
<g id="glyph-15-0-ae3962cf">
<path d="M -6.3125 -4.5 C -6.28125 -2.6875 -5.453125 -2.140625 -3.8125 -2.140625 C -3.8125 -2.140625 0 -2.140625 0 -2.140625 C 0 -2.140625 0 -0.984375 0 -0.984375 C 0 -0.984375 -7.34375 -0.984375 -7.34375 -0.984375 C -7.34375 -0.984375 -7.34375 -2.046875 -7.34375 -2.046875 C -7.34375 -2.046875 -6 -2.046875 -6 -2.046875 C -7.09375 -2.71875 -7.546875 -3.296875 -7.546875 -4.046875 C -7.546875 -4.203125 -7.53125 -4.296875 -7.5 -4.5 C -7.5 -4.5 -6.3125 -4.5 -6.3125 -4.5 Z M -6.3125 -4.5 "/>
</g>
<g id="glyph-16-0-ae3962cf">
<path d="M 4.765625 -2 C 4.765625 -2 0.625 -2 0.625 -2 C 0.625 -2 0.625 -2.625 0.625 -2.625 C 0.625 -2.625 4.765625 -2.625 4.765625 -2.625 C 4.765625 -2.625 4.765625 -2 4.765625 -2 Z M 4.765625 -2 "/>
</g>
<g id="glyph-16-1-ae3962cf">
<path d="M 1.765625 0 C 1.765625 0 0.796875 0 0.796875 0 C 0.796875 0 0.796875 -0.953125 0.796875 -0.953125 C 0.796875 -0.953125 1.765625 -0.953125 1.765625 -0.953125 C 1.765625 -0.953125 1.765625 0 1.765625 0 Z M 1.765625 0 "/>
</g>
<g id="glyph-17-0-ae3962cf">
<path d="M 4.734375 -1.84375 C 4.734375 -0.65625 3.828125 0.140625 2.546875 0.140625 C 1.25 0.140625 0.34375 -0.65625 0.34375 -1.859375 C 0.34375 -2.578125 0.71875 -3.078125 1.453125 -3.4375 C 0.796875 -3.859375 0.578125 -4.1875 0.578125 -4.796875 C 0.578125 -5.828125 1.390625 -6.546875 2.546875 -6.546875 C 3.703125 -6.546875 4.5 -5.828125 4.5 -4.796875 C 4.5 -4.1875 4.28125 -3.84375 3.609375 -3.4375 C 4.375 -3.078125 4.734375 -2.578125 4.734375 -1.84375 Z M 3.671875 -4.78125 C 3.671875 -5.421875 3.234375 -5.828125 2.546875 -5.828125 C 1.859375 -5.828125 1.40625 -5.421875 1.40625 -4.796875 C 1.40625 -4.171875 1.859375 -3.765625 2.546875 -3.765625 C 3.21875 -3.765625 3.671875 -4.171875 3.671875 -4.78125 Z M 3.90625 -1.84375 C 3.90625 -2.609375 3.359375 -3.078125 2.546875 -3.078125 C 1.734375 -3.078125 1.171875 -2.609375 1.171875 -1.84375 C 1.171875 -1.078125 1.734375 -0.578125 2.515625 -0.578125 C 3.359375 -0.578125 3.90625 -1.0625 3.90625 -1.84375 Z M 3.90625 -1.84375 "/>
</g>
<g id="glyph-17-1-ae3962cf">
<path d="M 4.734375 -2.171875 C 4.734375 -0.78125 3.8125 0.140625 2.5 0.140625 C 1.328125 0.140625 0.59375 -0.375 0.328125 -1.6875 C 0.328125 -1.6875 1.140625 -1.6875 1.140625 -1.6875 C 1.328125 -0.9375 1.765625 -0.578125 2.46875 -0.578125 C 3.359375 -0.578125 3.90625 -1.125 3.90625 -2.0625 C 3.90625 -3.03125 3.359375 -3.59375 2.46875 -3.59375 C 1.96875 -3.59375 1.65625 -3.4375 1.28125 -2.984375 C 1.28125 -2.984375 0.53125 -2.984375 0.53125 -2.984375 C 0.53125 -2.984375 1.015625 -6.40625 1.015625 -6.40625 C 1.015625 -6.40625 4.390625 -6.40625 4.390625 -6.40625 C 4.390625 -6.40625 4.390625 -5.609375 4.390625 -5.609375 C 4.390625 -5.609375 1.671875 -5.609375 1.671875 -5.609375 C 1.671875 -5.609375 1.40625 -3.921875 1.40625 -3.921875 C 1.796875 -4.1875 2.15625 -4.3125 2.625 -4.3125 C 3.875 -4.3125 4.734375 -3.46875 4.734375 -2.171875 Z M 4.734375 -2.171875 "/>
</g>
<g id="glyph-18-0-ae3962cf">
<path d="M 4.765625 -2 C 4.765625 -2 0.625 -2 0.625 -2 C 0.625 -2 0.625 -2.625 0.625 -2.625 C 0.625 -2.625 4.765625 -2.625 4.765625 -2.625 C 4.765625 -2.625 4.765625 -2 4.765625 -2 Z M 4.765625 -2 "/>
</g>
<g id="glyph-18-1-ae3962cf">
<path d="M 1.765625 0 C 1.765625 0 0.796875 0 0.796875 0 C 0.796875 0 0.796875 -0.953125 0.796875 -0.953125 C 0.796875 -0.953125 1.765625 -0.953125 1.765625 -0.953125 C 1.765625 -0.953125 1.765625 0 1.765625 0 Z M 1.765625 0 "/>
</g>
<g id="glyph-19-0-ae3962cf">
<path d="M 4.734375 -1.84375 C 4.734375 -0.65625 3.828125 0.140625 2.546875 0.140625 C 1.25 0.140625 0.34375 -0.65625 0.34375 -1.859375 C 0.34375 -2.578125 0.71875 -3.078125 1.453125 -3.4375 C 0.796875 -3.859375 0.578125 -4.1875 0.578125 -4.796875 C 0.578125 -5.828125 1.390625 -6.546875 2.546875 -6.546875 C 3.703125 -6.546875 4.5 -5.828125 4.5 -4.796875 C 4.5 -4.1875 4.28125 -3.84375 3.609375 -3.4375 C 4.375 -3.078125 4.734375 -2.578125 4.734375 -1.84375 Z M 3.671875 -4.78125 C 3.671875 -5.421875 3.234375 -5.828125 2.546875 -5.828125 C 1.859375 -5.828125 1.40625 -5.421875 1.40625 -4.796875 C 1.40625 -4.171875 1.859375 -3.765625 2.546875 -3.765625 C 3.21875 -3.765625 3.671875 -4.171875 3.671875 -4.78125 Z M 3.90625 -1.84375 C 3.90625 -2.609375 3.359375 -3.078125 2.546875 -3.078125 C 1.734375 -3.078125 1.171875 -2.609375 1.171875 -1.84375 C 1.171875 -1.078125 1.734375 -0.578125 2.515625 -0.578125 C 3.359375 -0.578125 3.90625 -1.0625 3.90625 -1.84375 Z M 3.90625 -1.84375 "/>
</g>
<g id="glyph-19-1-ae3962cf">
<path d="M 4.6875 -3.15625 C 4.6875 -1 3.921875 0.140625 2.546875 0.140625 C 1.140625 0.140625 0.390625 -1 0.390625 -3.203125 C 0.390625 -5.40625 1.125 -6.546875 2.546875 -6.546875 C 3.96875 -6.546875 4.6875 -5.421875 4.6875 -3.15625 Z M 3.84375 -3.21875 C 3.84375 -4.984375 3.421875 -5.828125 2.546875 -5.828125 C 1.65625 -5.828125 1.234375 -4.984375 1.234375 -3.1875 C 1.234375 -1.40625 1.65625 -0.53125 2.515625 -0.53125 C 3.421875 -0.53125 3.84375 -1.359375 3.84375 -3.21875 Z M 3.84375 -3.21875 "/>
</g>
<g id="glyph-20-0-ae3962cf">
<path d="M 4.859375 0 C 4.859375 0 3.625 0 3.625 0 C 3.625 0 3.625 -7.0625 3.625 -7.0625 C 3.625 -7.0625 1.421875 -7.0625 1.421875 -7.0625 C 1.421875 -7.0625 1.421875 -7.953125 1.421875 -7.953125 C 3.328125 -8.1875 3.609375 -8.40625 4.046875 -9.921875 C 4.046875 -9.921875 4.859375 -9.921875 4.859375 -9.921875 C 4.859375 -9.921875 4.859375 0 4.859375 0 Z M 4.859375 0 "/>
</g>
<g id="glyph-20-1-ae3962cf">
<path d="M 7.09375 -4.78125 C 7.09375 -1.515625 5.953125 0.203125 3.84375 0.203125 C 1.71875 0.203125 0.609375 -1.515625 0.609375 -4.859375 C 0.609375 -8.1875 1.703125 -9.921875 3.84375 -9.921875 C 6 -9.921875 7.09375 -8.21875 7.09375 -4.78125 Z M 5.84375 -4.890625 C 5.84375 -7.546875 5.1875 -8.828125 3.84375 -8.828125 C 2.515625 -8.828125 1.859375 -7.5625 1.859375 -4.84375 C 1.859375 -2.125 2.515625 -0.8125 3.828125 -0.8125 C 5.1875 -0.8125 5.84375 -2.078125 5.84375 -4.890625 Z M 5.84375 -4.890625 "/>
</g>
<g id="glyph-21-0-ae3962cf">
<path d="M 4.765625 -2 C 4.765625 -2 0.625 -2 0.625 -2 C 0.625 -2 0.625 -2.625 0.625 -2.625 C 0.625 -2.625 4.765625 -2.625 4.765625 -2.625 C 4.765625 -2.625 4.765625 -2 4.765625 -2 Z M 4.765625 -2 "/>
</g>
<g id="glyph-21-1-ae3962cf">
<path d="M 1.765625 0 C 1.765625 0 0.796875 0 0.796875 0 C 0.796875 0 0.796875 -0.953125 0.796875 -0.953125 C 0.796875 -0.953125 1.765625 -0.953125 1.765625 -0.953125 C 1.765625 -0.953125 1.765625 0 1.765625 0 Z M 1.765625 0 "/>
</g>
<g id="glyph-22-0-ae3962cf">
<path d="M 4.796875 -5.71875 C 3.421875 -4.09375 2.5 -2.109375 2.140625 0 C 2.140625 0 1.28125 0 1.28125 0 C 1.734375 -2.046875 2.65625 -3.96875 3.96875 -5.609375 C 3.96875 -5.609375 0.421875 -5.609375 0.421875 -5.609375 C 0.421875 -5.609375 0.421875 -6.40625 0.421875 -6.40625 C 0.421875 -6.40625 4.796875 -6.40625 4.796875 -6.40625 C 4.796875 -6.40625 4.796875 -5.71875 4.796875 -5.71875 Z M 4.796875 -5.71875 "/>
</g>
<g id="glyph-22-1-ae3962cf">
<path d="M 4.734375 -2.171875 C 4.734375 -0.78125 3.8125 0.140625 2.5 0.140625 C 1.328125 0.140625 0.59375 -0.375 0.328125 -1.6875 C 0.328125 -1.6875 1.140625 -1.6875 1.140625 -1.6875 C 1.328125 -0.9375 1.765625 -0.578125 2.46875 -0.578125 C 3.359375 -0.578125 3.90625 -1.125 3.90625 -2.0625 C 3.90625 -3.03125 3.359375 -3.59375 2.46875 -3.59375 C 1.96875 -3.59375 1.65625 -3.4375 1.28125 -2.984375 C 1.28125 -2.984375 0.53125 -2.984375 0.53125 -2.984375 C 0.53125 -2.984375 1.015625 -6.40625 1.015625 -6.40625 C 1.015625 -6.40625 4.390625 -6.40625 4.390625 -6.40625 C 4.390625 -6.40625 4.390625 -5.609375 4.390625 -5.609375 C 4.390625 -5.609375 1.671875 -5.609375 1.671875 -5.609375 C 1.671875 -5.609375 1.40625 -3.921875 1.40625 -3.921875 C 1.796875 -4.1875 2.15625 -4.3125 2.625 -4.3125 C 3.875 -4.3125 4.734375 -3.46875 4.734375 -2.171875 Z M 4.734375 -2.171875 "/>
</g>
<g id="glyph-23-0-ae3962cf">
<path d="M 13.046875 -10.203125 C 13.046875 -10.203125 10.21875 0 10.21875 0 C 10.21875 0 8.328125 0 8.328125 0 C 8.328125 0 6.625 -7.96875 6.625 -7.96875 C 6.625 -7.96875 4.953125 0 4.953125 0 C 4.953125 0 3.0625 0 3.0625 0 C 3.0625 0 0.1875 -10.203125 0.1875 -10.203125 C 0.1875 -10.203125 2.40625 -10.203125 2.40625 -10.203125 C 2.40625 -10.203125 3.984375 -2.5625 3.984375 -2.5625 C 3.984375 -2.5625 5.578125 -10.203125 5.578125 -10.203125 C 5.578125 -10.203125 7.640625 -10.203125 7.640625 -10.203125 C 7.640625 -10.203125 9.296875 -2.546875 9.296875 -2.546875 C 9.296875 -2.546875 10.828125 -10.203125 10.828125 -10.203125 C 10.828125 -10.203125 13.046875 -10.203125 13.046875 -10.203125 Z M 13.046875 -10.203125 "/>
</g>
<g id="glyph-23-1-ae3962cf">
<path d="M 7.96875 -3.71875 C 7.96875 -1.296875 6.53125 0.125 4.234375 0.125 C 1.90625 0.125 0.484375 -1.28125 0.484375 -3.78125 C 0.484375 -6.265625 1.90625 -7.6875 4.21875 -7.6875 C 6.578125 -7.6875 7.96875 -6.28125 7.96875 -3.71875 Z M 6 -3.75 C 6 -5.234375 5.3125 -6.109375 4.234375 -6.109375 C 3.15625 -6.109375 2.453125 -5.21875 2.453125 -3.78125 C 2.453125 -2.34375 3.15625 -1.453125 4.234375 -1.453125 C 5.28125 -1.453125 6 -2.34375 6 -3.75 Z M 6 -3.75 "/>
</g>
<g id="glyph-23-2-ae3962cf">
<path d="M 5.1875 -5.6875 C 4.90625 -5.71875 4.78125 -5.734375 4.5625 -5.734375 C 3.421875 -5.734375 2.84375 -5.171875 2.84375 -4.015625 C 2.84375 -4.015625 2.84375 0 2.84375 0 C 2.84375 0 0.875 0 0.875 0 C 0.875 0 0.875 -7.5625 0.875 -7.5625 C 0.875 -7.5625 2.84375 -7.5625 2.84375 -7.5625 C 2.84375 -7.5625 2.84375 -6.078125 2.84375 -6.078125 C 3.265625 -7.09375 4.046875 -7.6875 4.9375 -7.6875 C 5 -7.6875 5.0625 -7.6875 5.1875 -7.671875 C 5.1875 -7.671875 5.1875 -5.6875 5.1875 -5.6875 Z M 5.1875 -5.6875 "/>
</g>
<g id="glyph-23-3-ae3962cf">
</g>
<g id="glyph-23-4-ae3962cf">
<path d="M 7.3125 -2.625 C 7.125 -1.015625 5.859375 0.125 4.015625 0.125 C 1.78125 0.125 0.46875 -1.234375 0.46875 -3.71875 C 0.46875 -6.296875 1.796875 -7.6875 4.046875 -7.6875 C 5.9375 -7.6875 7.171875 -6.578125 7.3125 -4.734375 C 7.3125 -4.734375 5.4375 -4.734375 5.4375 -4.734375 C 5.203125 -5.71875 4.828125 -6.109375 4.03125 -6.109375 C 2.796875 -6.109375 2.4375 -5.109375 2.4375 -3.71875 C 2.4375 -2.25 3.03125 -1.453125 4.03125 -1.453125 C 4.78125 -1.453125 5.1875 -1.828125 5.4375 -2.625 C 5.4375 -2.625 7.3125 -2.625 7.3125 -2.625 Z M 7.3125 -2.625 "/>
</g>
<g id="glyph-23-5-ae3962cf">
<path d="M 7.34375 0 C 7.34375 0 5.203125 0 5.203125 0 C 5.03125 -0.21875 4.984375 -0.5625 4.984375 -0.953125 C 4.296875 -0.234375 3.53125 0.125 2.6875 0.125 C 1.421875 0.125 0.390625 -0.578125 0.390625 -2.046875 C 0.390625 -3.421875 1.125 -4.0625 2.625 -4.328125 C 2.625 -4.328125 3.40625 -4.46875 3.40625 -4.46875 C 4.375 -4.640625 4.96875 -4.546875 4.96875 -5.34375 C 4.96875 -5.859375 4.59375 -6.109375 3.84375 -6.109375 C 2.875 -6.109375 2.546875 -5.859375 2.453125 -5.0625 C 2.453125 -5.0625 0.5625 -5.0625 0.5625 -5.0625 C 0.6875 -6.8125 1.75 -7.6875 3.796875 -7.6875 C 5.84375 -7.6875 6.890625 -6.90625 6.890625 -5.359375 C 6.890625 -5.359375 6.890625 -1.15625 6.890625 -1.15625 C 6.890625 -0.765625 6.984375 -0.5625 7.34375 -0.234375 C 7.34375 -0.234375 7.34375 0 7.34375 0 Z M 4.96875 -3.234375 C 4.96875 -3.234375 4.96875 -3.5625 4.96875 -3.5625 C 4.75 -3.453125 4.65625 -3.4375 4.140625 -3.328125 C 4.140625 -3.328125 3.46875 -3.203125 3.46875 -3.203125 C 2.65625 -3.046875 2.359375 -2.84375 2.359375 -2.265625 C 2.359375 -1.703125 2.765625 -1.453125 3.421875 -1.453125 C 4.40625 -1.453125 4.96875 -2.09375 4.96875 -3.234375 Z M 4.96875 -3.234375 "/>
</g>
<g id="glyph-23-6-ae3962cf">
<path d="M 7.28125 -2.234375 C 7.28125 -0.71875 6.109375 0.125 3.96875 0.125 C 1.6875 0.125 0.46875 -0.734375 0.40625 -2.390625 C 0.40625 -2.390625 2.328125 -2.390625 2.328125 -2.390625 C 2.484375 -1.578125 2.96875 -1.40625 3.859375 -1.40625 C 4.78125 -1.40625 5.3125 -1.59375 5.3125 -2.0625 C 5.3125 -2.265625 5.15625 -2.421875 4.65625 -2.578125 C 4.65625 -2.578125 2.328125 -3.296875 2.328125 -3.296875 C 0.921875 -3.734375 0.671875 -4.234375 0.671875 -5.171875 C 0.671875 -6.71875 1.859375 -7.6875 3.78125 -7.6875 C 5.8125 -7.6875 7.046875 -6.71875 7.0625 -5.125 C 7.0625 -5.125 5.1875 -5.125 5.1875 -5.125 C 5.171875 -5.8125 4.703125 -6.140625 3.765625 -6.140625 C 3.078125 -6.140625 2.625 -5.859375 2.625 -5.453125 C 2.625 -5.140625 2.765625 -5.015625 3.3125 -4.859375 C 3.3125 -4.859375 5.796875 -4.140625 5.796875 -4.140625 C 6.796875 -3.84375 7.28125 -3.203125 7.28125 -2.34375 C 7.28125 -2.34375 7.28125 -2.234375 7.28125 -2.234375 Z M 7.28125 -2.234375 "/>
</g>
<g id="glyph-23-7-ae3962cf">
<path d="M 7.34375 -3.5 C 7.34375 -3.5 7.34375 -3.265625 7.34375 -3.265625 C 7.34375 -3.265625 2.265625 -3.265625 2.265625 -3.265625 C 2.328125 -1.796875 2.90625 -1.375 3.84375 -1.375 C 4.546875 -1.375 5.171875 -1.578125 5.328125 -2.125 C 5.328125 -2.125 7.265625 -2.125 7.265625 -2.125 C 6.828125 -0.640625 5.453125 0.125 3.765625 0.125 C 1.625 0.125 0.3125 -1.265625 0.3125 -3.6875 C 0.3125 -6.21875 1.640625 -7.6875 3.8125 -7.6875 C 6.03125 -7.6875 7.34375 -6.109375 7.34375 -3.5 Z M 5.3125 -4.5625 C 5.203125 -5.640625 4.625 -6.1875 3.78125 -6.1875 C 2.90625 -6.1875 2.421875 -5.609375 2.296875 -4.5625 C 2.296875 -4.5625 5.3125 -4.5625 5.3125 -4.5625 Z M 5.3125 -4.5625 "/>
</g>
<g id="glyph-23-8-ae3962cf">
<path d="M 2.890625 0 C 2.890625 0 0.9375 0 0.9375 0 C 0.9375 0 0.9375 -10.203125 0.9375 -10.203125 C 0.9375 -10.203125 2.890625 -10.203125 2.890625 -10.203125 C 2.890625 -10.203125 2.890625 0 2.890625 0 Z M 2.890625 0 "/>
</g>
<g id="glyph-23-9-ae3962cf">
<path d="M 4.21875 0 C 3.859375 0.015625 3.515625 0.0625 3.078125 0.0625 C 1.796875 0.0625 1.15625 -0.4375 1.15625 -1.625 C 1.15625 -1.625 1.15625 -6.109375 1.15625 -6.109375 C 1.15625 -6.109375 0.203125 -6.109375 0.203125 -6.109375 C 0.203125 -6.109375 0.203125 -7.40625 0.203125 -7.40625 C 0.203125 -7.40625 1.15625 -7.40625 1.15625 -7.40625 C 1.15625 -7.40625 1.15625 -9.4375 1.15625 -9.4375 C 1.15625 -9.4375 3.125 -9.4375 3.125 -9.4375 C 3.125 -9.4375 3.125 -7.40625 3.125 -7.40625 C 3.125 -7.40625 4.21875 -7.40625 4.21875 -7.40625 C 4.21875 -7.40625 4.21875 -6.109375 4.21875 -6.109375 C 4.21875 -6.109375 3.125 -6.109375 3.125 -6.109375 C 3.125 -6.109375 3.125 -2.15625 3.125 -2.15625 C 3.125 -1.484375 3.25 -1.328125 3.765625 -1.328125 C 3.90625 -1.328125 4.015625 -1.34375 4.21875 -1.375 C 4.21875 -1.375 4.21875 0 4.21875 0 Z M 4.21875 0 "/>
</g>
<g id="glyph-23-10-ae3962cf">
<path d="M 3 -0.125 C 3 0.96875 2.796875 1.484375 2.234375 1.921875 C 1.859375 2.21875 1.46875 2.359375 0.890625 2.4375 C 0.890625 2.4375 0.890625 1.65625 0.890625 1.65625 C 1.71875 1.484375 2.09375 1 2.09375 0.046875 C 2.09375 0.046875 2.09375 0 2.09375 0 C 2.09375 0 0.890625 0 0.890625 0 C 0.890625 0 0.890625 -2.046875 0.890625 -2.046875 C 0.890625 -2.046875 3 -2.046875 3 -2.046875 C 3 -2.046875 3 -0.125 3 -0.125 Z M 3 -0.125 "/>
</g>
<g id="glyph-23-11-ae3962cf">
<path d="M 7.640625 0 C 7.640625 0 5.6875 0 5.6875 0 C 5.6875 0 5.6875 -4.65625 5.6875 -4.65625 C 5.6875 -5.5625 5.265625 -6.015625 4.421875 -6.015625 C 3.46875 -6.015625 2.84375 -5.4375 2.84375 -4.53125 C 2.84375 -4.53125 2.84375 0 2.84375 0 C 2.84375 0 0.875 0 0.875 0 C 0.875 0 0.875 -7.5625 0.875 -7.5625 C 0.875 -7.5625 2.84375 -7.5625 2.84375 -7.5625 C 2.84375 -7.5625 2.84375 -6.46875 2.84375 -6.46875 C 3.40625 -7.3125 4.09375 -7.6875 5.109375 -7.6875 C 6.71875 -7.6875 7.640625 -6.734375 7.640625 -5.0625 C 7.640625 -5.0625 7.640625 0 7.640625 0 Z M 7.640625 0 "/>
</g>
<g id="glyph-23-12-ae3962cf">
<path d="M 7.625 0 C 7.625 0 5.671875 0 5.671875 0 C 5.671875 0 5.671875 -0.875 5.671875 -0.875 C 5.1875 -0.21875 4.515625 0.125 3.578125 0.125 C 1.578125 0.125 0.40625 -1.625 0.40625 -3.765625 C 0.40625 -6.046875 1.78125 -7.6875 3.578125 -7.6875 C 4.515625 -7.6875 5.1875 -7.34375 5.671875 -6.578125 C 5.671875 -6.578125 5.671875 -10.203125 5.671875 -10.203125 C 5.671875 -10.203125 7.625 -10.203125 7.625 -10.203125 C 7.625 -10.203125 7.625 0 7.625 0 Z M 5.671875 -3.734375 C 5.671875 -5.1875 5.015625 -6.046875 4.015625 -6.046875 C 3.03125 -6.046875 2.359375 -5.171875 2.359375 -3.765625 C 2.359375 -2.375 3.03125 -1.515625 4.015625 -1.515625 C 5 -1.515625 5.671875 -2.359375 5.671875 -3.734375 Z M 5.671875 -3.734375 "/>
</g>
<g id="glyph-23-13-ae3962cf">
<path d="M 9.328125 -2.9375 C 9.328125 -1.265625 8.125 0 5.734375 0 C 5.734375 0 1.140625 0 1.140625 0 C 1.140625 0 1.140625 -10.203125 1.140625 -10.203125 C 1.140625 -10.203125 5.703125 -10.203125 5.703125 -10.203125 C 7.828125 -10.203125 9.03125 -8.953125 9.03125 -7.515625 C 9.03125 -6.65625 8.640625 -6.0625 7.625 -5.421875 C 8.78125 -4.75 9.328125 -3.953125 9.328125 -2.9375 Z M 7.015625 -7.296875 C 7.015625 -8.046875 6.5 -8.453125 5.53125 -8.453125 C 5.53125 -8.453125 3.25 -8.453125 3.25 -8.453125 C 3.25 -8.453125 3.25 -6.140625 3.25 -6.140625 C 3.25 -6.140625 5.53125 -6.140625 5.53125 -6.140625 C 6.5 -6.140625 7.015625 -6.546875 7.015625 -7.296875 Z M 7.3125 -3.0625 C 7.3125 -3.9375 6.78125 -4.390625 5.75 -4.390625 C 5.75 -4.390625 3.25 -4.390625 3.25 -4.390625 C 3.25 -4.390625 3.25 -1.75 3.25 -1.75 C 3.25 -1.75 5.75 -1.75 5.75 -1.75 C 6.78125 -1.75 7.3125 -2.21875 7.3125 -3.0625 Z M 7.3125 -3.0625 "/>
</g>
<g id="glyph-23-14-ae3962cf">
<path d="M 2.984375 0 C 2.984375 0 0.875 0 0.875 0 C 0.875 0 0.875 -10.203125 0.875 -10.203125 C 0.875 -10.203125 2.984375 -10.203125 2.984375 -10.203125 C 2.984375 -10.203125 2.984375 0 2.984375 0 Z M 2.984375 0 "/>
</g>
<g id="glyph-23-15-ae3962cf">
<path d="M 9.59375 -3.484375 C 9.46875 -1.140625 7.765625 0.171875 5.234375 0.171875 C 2.390625 0.171875 0.609375 -1.8125 0.609375 -5.09375 C 0.609375 -8.40625 2.40625 -10.375 5.296875 -10.375 C 7.59375 -10.375 9.359375 -9.09375 9.546875 -6.75 C 9.546875 -6.75 7.546875 -6.75 7.546875 -6.75 C 7.234375 -8.0625 6.5 -8.578125 5.359375 -8.578125 C 3.703125 -8.578125 2.71875 -7.328125 2.71875 -5.0625 C 2.71875 -2.84375 3.671875 -1.59375 5.296875 -1.59375 C 6.59375 -1.59375 7.421875 -2.1875 7.546875 -3.484375 C 7.546875 -3.484375 9.59375 -3.484375 9.59375 -3.484375 Z M 9.59375 -3.484375 "/>
</g>
<g id="glyph-23-16-ae3962cf">
<path d="M 11.53125 0 C 11.53125 0 9.578125 0 9.578125 0 C 9.578125 0 9.578125 -5.046875 9.578125 -5.046875 C 9.578125 -5.640625 9.171875 -6.015625 8.515625 -6.015625 C 7.671875 -6.015625 7.171875 -5.453125 7.171875 -4.53125 C 7.171875 -4.53125 7.171875 0 7.171875 0 C 7.171875 0 5.203125 0 5.203125 0 C 5.203125 0 5.203125 -5.046875 5.203125 -5.046875 C 5.203125 -5.640625 4.796875 -6.015625 4.140625 -6.015625 C 3.296875 -6.015625 2.796875 -5.453125 2.796875 -4.53125 C 2.796875 -4.53125 2.796875 0 2.796875 0 C 2.796875 0 0.84375 0 0.84375 0 C 0.84375 0 0.84375 -7.5625 0.84375 -7.5625 C 0.84375 -7.5625 2.78125 -7.5625 2.78125 -7.5625 C 2.78125 -7.5625 2.78125 -6.625 2.78125 -6.625 C 3.4375 -7.390625 3.984375 -7.6875 4.859375 -7.6875 C 5.796875 -7.6875 6.546875 -7.28125 6.921875 -6.5625 C 7.5 -7.34375 8.171875 -7.6875 9.125 -7.6875 C 10.640625 -7.6875 11.53125 -6.8125 11.53125 -5.34375 C 11.53125 -5.34375 11.53125 0 11.53125 0 Z M 11.53125 0 "/>
</g>
<g id="glyph-23-17-ae3962cf">
<path d="M 2.890625 0 C 2.890625 0 0.9375 0 0.9375 0 C 0.9375 0 0.9375 -7.5625 0.9375 -7.5625 C 0.9375 -7.5625 2.890625 -7.5625 2.890625 -7.5625 C 2.890625 -7.5625 2.890625 0 2.890625 0 Z M 2.921875 -8.46875 C 2.921875 -8.46875 0.96875 -8.46875 0.96875 -8.46875 C 0.96875 -8.46875 0.96875 -10.4375 0.96875 -10.4375 C 0.96875 -10.4375 2.921875 -10.4375 2.921875 -10.4375 C 2.921875 -10.4375 2.921875 -8.46875 2.921875 -8.46875 Z M 2.921875 -8.46875 "/>
</g>
<g id="glyph-24-0-ae3962cf">
<path d="M 7.28125 -2.234375 C 7.28125 -0.71875 6.109375 0.125 3.96875 0.125 C 1.6875 0.125 0.46875 -0.734375 0.40625 -2.390625 C 0.40625 -2.390625 2.328125 -2.390625 2.328125 -2.390625 C 2.484375 -1.578125 2.96875 -1.40625 3.859375 -1.40625 C 4.78125 -1.40625 5.3125 -1.59375 5.3125 -2.0625 C 5.3125 -2.265625 5.15625 -2.421875 4.65625 -2.578125 C 4.65625 -2.578125 2.328125 -3.296875 2.328125 -3.296875 C 0.921875 -3.734375 0.671875 -4.234375 0.671875 -5.171875 C 0.671875 -6.71875 1.859375 -7.6875 3.78125 -7.6875 C 5.8125 -7.6875 7.046875 -6.71875 7.0625 -5.125 C 7.0625 -5.125 5.1875 -5.125 5.1875 -5.125 C 5.171875 -5.8125 4.703125 -6.140625 3.765625 -6.140625 C 3.078125 -6.140625 2.625 -5.859375 2.625 -5.453125 C 2.625 -5.140625 2.765625 -5.015625 3.3125 -4.859375 C 3.3125 -4.859375 5.796875 -4.140625 5.796875 -4.140625 C 6.796875 -3.84375 7.28125 -3.203125 7.28125 -2.34375 C 7.28125 -2.34375 7.28125 -2.234375 7.28125 -2.234375 Z M 7.28125 -2.234375 "/>
</g>
<g id="glyph-24-1-ae3962cf">
<path d="M 4.21875 0 C 3.859375 0.015625 3.515625 0.0625 3.078125 0.0625 C 1.796875 0.0625 1.15625 -0.4375 1.15625 -1.625 C 1.15625 -1.625 1.15625 -6.109375 1.15625 -6.109375 C 1.15625 -6.109375 0.203125 -6.109375 0.203125 -6.109375 C 0.203125 -6.109375 0.203125 -7.40625 0.203125 -7.40625 C 0.203125 -7.40625 1.15625 -7.40625 1.15625 -7.40625 C 1.15625 -7.40625 1.15625 -9.4375 1.15625 -9.4375 C 1.15625 -9.4375 3.125 -9.4375 3.125 -9.4375 C 3.125 -9.4375 3.125 -7.40625 3.125 -7.40625 C 3.125 -7.40625 4.21875 -7.40625 4.21875 -7.40625 C 4.21875 -7.40625 4.21875 -6.109375 4.21875 -6.109375 C 4.21875 -6.109375 3.125 -6.109375 3.125 -6.109375 C 3.125 -6.109375 3.125 -2.15625 3.125 -2.15625 C 3.125 -1.484375 3.25 -1.328125 3.765625 -1.328125 C 3.90625 -1.328125 4.015625 -1.34375 4.21875 -1.375 C 4.21875 -1.375 4.21875 0 4.21875 0 Z M 4.21875 0 "/>
</g>
<g id="glyph-25-0-ae3962cf">
<path d="M 8.15625 0 C 8.15625 0 0.390625 0 0.390625 0 C 0.390625 0 0.390625 -1.140625 0.390625 -1.140625 C 0.390625 -1.140625 6.53125 -9.0625 6.53125 -9.0625 C 6.53125 -9.0625 0.78125 -9.0625 0.78125 -9.0625 C 0.78125 -9.0625 0.78125 -10.203125 0.78125 -10.203125 C 0.78125 -10.203125 8.140625 -10.203125 8.140625 -10.203125 C 8.140625 -10.203125 8.140625 -9.03125 8.140625 -9.03125 C 8.140625 -9.03125 2.03125 -1.140625 2.03125 -1.140625 C 2.03125 -1.140625 8.15625 -1.140625 8.15625 -1.140625 C 8.15625 -1.140625 8.15625 0 8.15625 0 Z M 8.15625 0 "/>
</g>
</g>
</defs>
<rect x="-72" y="-42" width="864" height="504" fill="rgb(100%, 100%, 100%)" fill-opacity="1"/>
<path fill-rule="nonzero" fill="rgb(100%, 100%, 100%)" fill-opacity="1" d="M 81 361 L 704 361 L 704 36 L 81 36 Z M 81 361 "/>
<path fill="none" stroke-width="1" stroke-linecap="butt" stroke-linejoin="miter" stroke="rgb(0%, 0%, 0%)" stroke-opacity="0.12" stroke-miterlimit="1.154701" d="M 109.316406 361 L 109.316406 36 "/>
<path fill="none" stroke-width="1" stroke-linecap="butt" stroke-linejoin="miter" stroke="rgb(0%, 0%, 0%)" stroke-opacity="0.12" stroke-miterlimit="1.154701" d="M 392.5 361 L 392.5 36 "/>
<path fill="none" stroke-width="1" stroke-linecap="butt" stroke-linejoin="miter" stroke="rgb(0%, 0%, 0%)" stroke-opacity="0.12" stroke-miterlimit="1.154701" d="M 675.683594 361 L 675.683594 36 "/>
<path fill="none" stroke-width="1" stroke-linecap="butt" stroke-linejoin="miter" stroke="rgb(0%, 0%, 0%)" stroke-opacity="0.12" stroke-miterlimit="1.154701" d="M 81 312.277344 L 704 312.277344 "/>
<path fill="none" stroke-width="1" stroke-linecap="butt" stroke-linejoin="miter" stroke="rgb(0%, 0%, 0%)" stroke-opacity="0.12" stroke-miterlimit="1.154701" d="M 81 181.984375 L 704 181.984375 "/>
<path fill="none" stroke-width="1" stroke-linecap="butt" stroke-linejoin="miter" stroke="rgb(0%, 0%, 0%)" stroke-opacity="0.12" stroke-miterlimit="1.154701" d="M 81 51.691406 L 704 51.691406 "/>
<g fill="rgb(0%, 0%, 0%)" fill-opacity="1">
<use xlink:href="#glyph-0-0-ae3962cf" x="339.965016" y="401.567999"/>
<use xlink:href="#glyph-0-1-ae3962cf" x="349.303017" y="401.567999"/>
<use xlink:href="#glyph-0-2-ae3962cf" x="357.087014" y="401.567999"/>
<use xlink:href="#glyph-0-3-ae3962cf" x="364.871017" y="401.567999"/>
<use xlink:href="#glyph-0-4-ae3962cf" x="372.655015" y="401.567999"/>
<use xlink:href="#glyph-0-5-ae3962cf" x="376.547014" y="401.567999"/>
<use xlink:href="#glyph-0-6-ae3962cf" x="379.655016" y="401.567999"/>
<use xlink:href="#glyph-0-7-ae3962cf" x="387.439016" y="401.567999"/>
<use xlink:href="#glyph-0-8-ae3962cf" x="395.223017" y="401.567999"/>
<use xlink:href="#glyph-0-6-ae3962cf" x="399.115015" y="401.567999"/>
<use xlink:href="#glyph-0-9-ae3962cf" x="406.899016" y="401.567999"/>
<use xlink:href="#glyph-0-8-ae3962cf" x="410.791014" y="401.567999"/>
<use xlink:href="#glyph-0-10-ae3962cf" x="414.683013" y="401.567999"/>
<use xlink:href="#glyph-0-4-ae3962cf" x="421.683013" y="401.567999"/>
<use xlink:href="#glyph-0-3-ae3962cf" x="425.575011" y="401.567999"/>
<use xlink:href="#glyph-0-4-ae3962cf" x="433.359008" y="401.567999"/>
<use xlink:href="#glyph-0-11-ae3962cf" x="437.251006" y="401.567999"/>
</g>
<g fill="rgb(0%, 0%, 0%)" fill-opacity="1">
<use xlink:href="#glyph-0-12-ae3962cf" x="91.811186" y="382.257999"/>
<use xlink:href="#glyph-0-13-ae3962cf" x="101.149187" y="382.257999"/>
<use xlink:href="#glyph-0-14-ae3962cf" x="111.257186" y="382.257999"/>
<use xlink:href="#glyph-0-15-ae3962cf" x="119.041186" y="382.257999"/>
</g>
<g fill="rgb(0%, 0%, 0%)" fill-opacity="1">
<use xlink:href="#glyph-0-16-ae3962cf" x="378.108009" y="382.257999"/>
<use xlink:href="#glyph-0-13-ae3962cf" x="387.446009" y="382.257999"/>
<use xlink:href="#glyph-0-17-ae3962cf" x="397.554009" y="382.257999"/>
</g>
<g fill="rgb(0%, 0%, 0%)" fill-opacity="1">
<use xlink:href="#glyph-0-13-ae3962cf" x="665.95884" y="382.257999"/>
<use xlink:href="#glyph-0-17-ae3962cf" x="676.06684" y="382.257999"/>
</g>
<g fill="rgb(0%, 0%, 0%)" fill-opacity="1">
<use xlink:href="#glyph-1-0-ae3962cf" x="28.216235" y="270.060984"/>
</g>
<g fill="rgb(0%, 0%, 0%)" fill-opacity="1">
<use xlink:href="#glyph-2-0-ae3962cf" x="28.216235" y="258.398988"/>
</g>
<g fill="rgb(0%, 0%, 0%)" fill-opacity="1">
<use xlink:href="#glyph-3-0-ae3962cf" x="28.216236" y="250.614988"/>
</g>
<g fill="rgb(0%, 0%, 0%)" fill-opacity="1">
<use xlink:href="#glyph-4-0-ae3962cf" x="28.216236" y="243.614987"/>
<use xlink:href="#glyph-4-1-ae3962cf" x="28.216236" y="240.506985"/>
</g>
<g fill="rgb(0%, 0%, 0%)" fill-opacity="1">
<use xlink:href="#glyph-5-0-ae3962cf" x="28.216237" y="228.844988"/>
</g>
<g fill="rgb(0%, 0%, 0%)" fill-opacity="1">
<use xlink:href="#glyph-6-0-ae3962cf" x="28.216238" y="221.060988"/>
</g>
<g fill="rgb(0%, 0%, 0%)" fill-opacity="1">
<use xlink:href="#glyph-3-1-ae3962cf" x="28.216238" y="209.398989"/>
</g>
<g fill="rgb(0%, 0%, 0%)" fill-opacity="1">
<use xlink:href="#glyph-7-0-ae3962cf" x="28.216238" y="205.506987"/>
</g>
<g fill="rgb(0%, 0%, 0%)" fill-opacity="1">
<use xlink:href="#glyph-8-0-ae3962cf" x="28.216239" y="200.844985"/>
</g>
<g fill="rgb(0%, 0%, 0%)" fill-opacity="1">
<use xlink:href="#glyph-2-1-ae3962cf" x="28.216239" y="193.060989"/>
</g>
<g fill="rgb(0%, 0%, 0%)" fill-opacity="1">
<use xlink:href="#glyph-9-0-ae3962cf" x="28.216239" y="189.952987"/>
</g>
<g fill="rgb(0%, 0%, 0%)" fill-opacity="1">
<use xlink:href="#glyph-5-1-ae3962cf" x="28.21624" y="182.168992"/>
</g>
<g fill="rgb(0%, 0%, 0%)" fill-opacity="1">
<use xlink:href="#glyph-4-0-ae3962cf" x="28.21624" y="178.276993"/>
</g>
<g fill="rgb(0%, 0%, 0%)" fill-opacity="1">
<use xlink:href="#glyph-10-0-ae3962cf" x="28.21624" y="175.168991"/>
</g>
<g fill="rgb(0%, 0%, 0%)" fill-opacity="1">
<use xlink:href="#glyph-5-2-ae3962cf" x="28.216241" y="168.168991"/>
</g>
<g fill="rgb(0%, 0%, 0%)" fill-opacity="1">
<use xlink:href="#glyph-11-0-ae3962cf" x="28.216241" y="160.384996"/>
</g>
<g fill="rgb(0%, 0%, 0%)" fill-opacity="1">
<use xlink:href="#glyph-12-0-ae3962cf" x="28.216242" y="156.492998"/>
</g>
<g fill="rgb(0%, 0%, 0%)" fill-opacity="1">
<use xlink:href="#glyph-13-0-ae3962cf" x="28.216242" y="148.709001"/>
</g>
<g fill="rgb(0%, 0%, 0%)" fill-opacity="1">
<use xlink:href="#glyph-1-1-ae3962cf" x="28.216242" y="144.046998"/>
</g>
<g fill="rgb(0%, 0%, 0%)" fill-opacity="1">
<use xlink:href="#glyph-14-0-ae3962cf" x="28.216243" y="139.384995"/>
</g>
<g fill="rgb(0%, 0%, 0%)" fill-opacity="1">
<use xlink:href="#glyph-15-0-ae3962cf" x="28.216243" y="131.601002"/>
</g>
<g fill="rgb(0%, 0%, 0%)" fill-opacity="1">
<use xlink:href="#glyph-0-18-ae3962cf" x="36.268243" y="317.927907"/>
<use xlink:href="#glyph-0-19-ae3962cf" x="44.052243" y="317.927907"/>
</g>
<g fill="rgb(0%, 0%, 0%)" fill-opacity="1">
<use xlink:href="#glyph-16-0-ae3962cf" x="52.760244" y="312.327907"/>
</g>
<g fill="rgb(0%, 0%, 0%)" fill-opacity="1">
<use xlink:href="#glyph-17-0-ae3962cf" x="58.156404" y="312.327907"/>
</g>
<g fill="rgb(0%, 0%, 0%)" fill-opacity="1">
<use xlink:href="#glyph-16-1-ae3962cf" x="63.293844" y="312.327907"/>
</g>
<g fill="rgb(0%, 0%, 0%)" fill-opacity="1">
<use xlink:href="#glyph-17-1-ae3962cf" x="65.862564" y="312.327907"/>
</g>
<g fill="rgb(0%, 0%, 0%)" fill-opacity="1">
<use xlink:href="#glyph-0-18-ae3962cf" x="36.268243" y="187.633842"/>
<use xlink:href="#glyph-0-19-ae3962cf" x="44.052243" y="187.633842"/>
</g>
<g fill="rgb(0%, 0%, 0%)" fill-opacity="1">
<use xlink:href="#glyph-18-0-ae3962cf" x="52.760244" y="182.033842"/>
</g>
<g fill="rgb(0%, 0%, 0%)" fill-opacity="1">
<use xlink:href="#glyph-19-0-ae3962cf" x="58.156404" y="182.033842"/>
</g>
<g fill="rgb(0%, 0%, 0%)" fill-opacity="1">
<use xlink:href="#glyph-18-1-ae3962cf" x="63.293844" y="182.033842"/>
</g>
<g fill="rgb(0%, 0%, 0%)" fill-opacity="1">
<use xlink:href="#glyph-19-1-ae3962cf" x="65.862564" y="182.033842"/>
</g>
<g fill="rgb(0%, 0%, 0%)" fill-opacity="1">
<use xlink:href="#glyph-20-0-ae3962cf" x="36.268243" y="57.33977"/>
<use xlink:href="#glyph-20-1-ae3962cf" x="44.052243" y="57.33977"/>
</g>
<g fill="rgb(0%, 0%, 0%)" fill-opacity="1">
<use xlink:href="#glyph-21-0-ae3962cf" x="52.760244" y="51.73977"/>
</g>
<g fill="rgb(0%, 0%, 0%)" fill-opacity="1">
<use xlink:href="#glyph-22-0-ae3962cf" x="58.156404" y="51.73977"/>
</g>
<g fill="rgb(0%, 0%, 0%)" fill-opacity="1">
<use xlink:href="#glyph-21-1-ae3962cf" x="63.293844" y="51.73977"/>
</g>
<g fill="rgb(0%, 0%, 0%)" fill-opacity="1">
<use xlink:href="#glyph-22-1-ae3962cf" x="65.862564" y="51.73977"/>
</g>
<g fill="rgb(0%, 0%, 0%)" fill-opacity="1">
<use xlink:href="#glyph-23-0-ae3962cf" x="216.268026" y="28.947985"/>
<use xlink:href="#glyph-23-1-ae3962cf" x="229.48403" y="28.947985"/>
<use xlink:href="#glyph-23-2-ae3962cf" x="238.038031" y="28.947985"/>
</g>
<g fill="rgb(0%, 0%, 0%)" fill-opacity="1">
<use xlink:href="#glyph-24-0-ae3962cf" x="243.48403" y="28.947985"/>
<use xlink:href="#glyph-24-1-ae3962cf" x="251.268027" y="28.947985"/>
</g>
<g fill="rgb(0%, 0%, 0%)" fill-opacity="1">
<use xlink:href="#glyph-23-3-ae3962cf" x="255.930029" y="28.947985"/>
<use xlink:href="#glyph-23-4-ae3962cf" x="259.822028" y="28.947985"/>
<use xlink:href="#glyph-23-5-ae3962cf" x="267.606025" y="28.947985"/>
<use xlink:href="#glyph-23-6-ae3962cf" x="275.390021" y="28.947985"/>
<use xlink:href="#glyph-23-7-ae3962cf" x="283.174026" y="28.947985"/>
<use xlink:href="#glyph-23-3-ae3962cf" x="290.958022" y="28.947985"/>
<use xlink:href="#glyph-23-5-ae3962cf" x="294.850021" y="28.947985"/>
<use xlink:href="#glyph-23-4-ae3962cf" x="302.634018" y="28.947985"/>
<use xlink:href="#glyph-23-2-ae3962cf" x="310.418014" y="28.947985"/>
<use xlink:href="#glyph-23-1-ae3962cf" x="315.864014" y="28.947985"/>
<use xlink:href="#glyph-23-6-ae3962cf" x="324.418015" y="28.947985"/>
<use xlink:href="#glyph-23-6-ae3962cf" x="332.202012" y="28.947985"/>
<use xlink:href="#glyph-23-3-ae3962cf" x="339.986008" y="28.947985"/>
<use xlink:href="#glyph-23-5-ae3962cf" x="343.878007" y="28.947985"/>
<use xlink:href="#glyph-23-8-ae3962cf" x="351.662011" y="28.947985"/>
<use xlink:href="#glyph-23-8-ae3962cf" x="355.554009" y="28.947985"/>
<use xlink:href="#glyph-23-3-ae3962cf" x="359.446008" y="28.947985"/>
<use xlink:href="#glyph-23-6-ae3962cf" x="363.338006" y="28.947985"/>
<use xlink:href="#glyph-23-9-ae3962cf" x="371.122003" y="28.947985"/>
<use xlink:href="#glyph-23-5-ae3962cf" x="375.784006" y="28.947985"/>
<use xlink:href="#glyph-23-9-ae3962cf" x="383.568002" y="28.947985"/>
<use xlink:href="#glyph-23-7-ae3962cf" x="388.230005" y="28.947985"/>
<use xlink:href="#glyph-23-6-ae3962cf" x="396.014002" y="28.947985"/>
<use xlink:href="#glyph-23-10-ae3962cf" x="403.797999" y="28.947985"/>
<use xlink:href="#glyph-23-3-ae3962cf" x="407.689997" y="28.947985"/>
<use xlink:href="#glyph-23-2-ae3962cf" x="411.581995" y="28.947985"/>
<use xlink:href="#glyph-23-1-ae3962cf" x="417.027995" y="28.947985"/>
<use xlink:href="#glyph-23-1-ae3962cf" x="425.581996" y="28.947985"/>
<use xlink:href="#glyph-23-9-ae3962cf" x="434.135997" y="28.947985"/>
<use xlink:href="#glyph-23-6-ae3962cf" x="438.798" y="28.947985"/>
<use xlink:href="#glyph-23-10-ae3962cf" x="446.581996" y="28.947985"/>
<use xlink:href="#glyph-23-3-ae3962cf" x="450.473995" y="28.947985"/>
<use xlink:href="#glyph-23-5-ae3962cf" x="454.365993" y="28.947985"/>
<use xlink:href="#glyph-23-11-ae3962cf" x="462.14999" y="28.947985"/>
<use xlink:href="#glyph-23-12-ae3962cf" x="470.703991" y="28.947985"/>
<use xlink:href="#glyph-23-3-ae3962cf" x="479.257992" y="28.947985"/>
<use xlink:href="#glyph-23-13-ae3962cf" x="483.14999" y="28.947985"/>
<use xlink:href="#glyph-23-14-ae3962cf" x="493.257992" y="28.947985"/>
<use xlink:href="#glyph-23-15-ae3962cf" x="497.149991" y="28.947985"/>
<use xlink:href="#glyph-23-3-ae3962cf" x="507.257993" y="28.947985"/>
<use xlink:href="#glyph-23-16-ae3962cf" x="511.149991" y="28.947985"/>
<use xlink:href="#glyph-23-5-ae3962cf" x="523.596006" y="28.947985"/>
<use xlink:href="#glyph-23-9-ae3962cf" x="531.380002" y="28.947985"/>
<use xlink:href="#glyph-23-2-ae3962cf" x="536.04199" y="28.947985"/>
<use xlink:href="#glyph-23-17-ae3962cf" x="541.488004" y="28.947985"/>
<use xlink:href="#glyph-23-4-ae3962cf" x="545.380003" y="28.947985"/>
<use xlink:href="#glyph-23-7-ae3962cf" x="553.164" y="28.947985"/>
<use xlink:href="#glyph-23-6-ae3962cf" x="560.947996" y="28.947985"/>
</g>
<path fill="none" stroke-width="1.5" stroke-linecap="butt" stroke-linejoin="miter" stroke="rgb(0%, 44.705883%, 69.803923%)" stroke-opacity="1" stroke-miterlimit="2" d="M 109.316406 346.226562 L 392.5 332.1875 L 675.683594 226.082031 "/>
<path fill-rule="nonzero" fill="rgb(0%, 44.705883%, 69.803923%)" fill-opacity="1" d="M 113.546875 346.226562 C 113.546875 340.585938 105.089844 340.585938 105.089844 346.226562 C 105.089844 351.867188 113.546875 351.867188 113.546875 346.226562 Z M 113.546875 346.226562 "/>
<path fill-rule="nonzero" fill="rgb(0%, 44.705883%, 69.803923%)" fill-opacity="1" d="M 396.730469 332.1875 C 396.730469 326.546875 388.269531 326.546875 388.269531 332.1875 C 388.269531 337.828125 396.730469 337.828125 396.730469 332.1875 Z M 396.730469 332.1875 "/>
<path fill-rule="nonzero" fill="rgb(0%, 44.705883%, 69.803923%)" fill-opacity="1" d="M 679.910156 226.082031 C 679.910156 220.441406 671.453125 220.441406 671.453125 226.082031 C 671.453125 231.71875 679.910156 231.71875 679.910156 226.082031 Z M 679.910156 226.082031 "/>
<path fill="none" stroke-width="1.5" stroke-linecap="butt" stroke-linejoin="miter" stroke="rgb(90.196079%, 62.352943%, 0%)" stroke-opacity="1" stroke-miterlimit="2" d="M 109.316406 148.371094 L 392.5 51.472656 L 675.683594 50.773438 "/>
<path fill-rule="nonzero" fill="rgb(90.196079%, 62.352943%, 0%)" fill-opacity="1" d="M 113.546875 148.371094 C 113.546875 142.730469 105.089844 142.730469 105.089844 148.371094 C 105.089844 154.011719 113.546875 154.011719 113.546875 148.371094 Z M 113.546875 148.371094 "/>
<path fill-rule="nonzero" fill="rgb(90.196079%, 62.352943%, 0%)" fill-opacity="1" d="M 396.730469 51.472656 C 396.730469 45.832031 388.269531 45.832031 388.269531 51.472656 C 388.269531 57.113281 396.730469 57.113281 396.730469 51.472656 Z M 396.730469 51.472656 "/>
<path fill-rule="nonzero" fill="rgb(90.196079%, 62.352943%, 0%)" fill-opacity="1" d="M 679.910156 50.773438 C 679.910156 45.132812 671.453125 45.132812 671.453125 50.773438 C 671.453125 56.414062 679.910156 56.414062 679.910156 50.773438 Z M 679.910156 50.773438 "/>
<path fill-rule="nonzero" fill="rgb(100%, 100%, 100%)" fill-opacity="1" stroke-width="1" stroke-linecap="butt" stroke-linejoin="miter" stroke="rgb(0%, 0%, 0%)" stroke-opacity="1" stroke-miterlimit="2" d="M 87 97 L 251 97 L 251 42 L 87 42 Z M 87 97 "/>
<path fill="none" stroke-width="1" stroke-linecap="butt" stroke-linejoin="miter" stroke="rgb(0%, 0%, 0%)" stroke-opacity="1" stroke-miterlimit="1.154701" d="M 109.316406 361.5 L 109.316406 366.5 "/>
<path fill="none" stroke-width="1" stroke-linecap="butt" stroke-linejoin="miter" stroke="rgb(0%, 0%, 0%)" stroke-opacity="1" stroke-miterlimit="1.154701" d="M 392.5 361.5 L 392.5 366.5 "/>
<path fill="none" stroke-width="1" stroke-linecap="butt" stroke-linejoin="miter" stroke="rgb(0%, 0%, 0%)" stroke-opacity="1" stroke-miterlimit="1.154701" d="M 675.683594 361.5 L 675.683594 366.5 "/>
<path fill="none" stroke-width="1" stroke-linecap="butt" stroke-linejoin="miter" stroke="rgb(0%, 0%, 0%)" stroke-opacity="1" stroke-miterlimit="1.154701" d="M 80.5 312.277344 L 75.5 312.277344 "/>
<path fill="none" stroke-width="1" stroke-linecap="butt" stroke-linejoin="miter" stroke="rgb(0%, 0%, 0%)" stroke-opacity="1" stroke-miterlimit="1.154701" d="M 80.5 181.984375 L 75.5 181.984375 "/>
<path fill="none" stroke-width="1" stroke-linecap="butt" stroke-linejoin="miter" stroke="rgb(0%, 0%, 0%)" stroke-opacity="1" stroke-miterlimit="1.154701" d="M 80.5 51.691406 L 75.5 51.691406 "/>
<path fill="none" stroke-width="1.5" stroke-linecap="butt" stroke-linejoin="miter" stroke="rgb(0%, 44.705883%, 69.803923%)" stroke-opacity="1" stroke-miterlimit="2" d="M 93.085938 58 L 113.085938 58 "/>
<path fill-rule="nonzero" fill="rgb(0%, 44.705883%, 69.803923%)" fill-opacity="1" d="M 107.316406 58 C 107.316406 52.359375 98.855469 52.359375 98.855469 58 C 98.855469 63.640625 107.316406 63.640625 107.316406 58 Z M 107.316406 58 "/>
<path fill="none" stroke-width="1.5" stroke-linecap="butt" stroke-linejoin="miter" stroke="rgb(90.196079%, 62.352943%, 0%)" stroke-opacity="1" stroke-miterlimit="2" d="M 93.085938 81 L 113.085938 81 "/>
<path fill-rule="nonzero" fill="rgb(90.196079%, 62.352943%, 0%)" fill-opacity="1" d="M 107.316406 81 C 107.316406 75.359375 98.855469 75.359375 98.855469 81 C 98.855469 86.640625 107.316406 86.640625 107.316406 81 Z M 107.316406 81 "/>
<g fill="rgb(0%, 0%, 0%)" fill-opacity="1">
<use xlink:href="#glyph-25-0-ae3962cf" x="118.087009" y="63.102987"/>
</g>
<g fill="rgb(0%, 0%, 0%)" fill-opacity="1">
<use xlink:href="#glyph-0-20-ae3962cf" x="118.087012" y="86.102987"/>
<use xlink:href="#glyph-0-2-ae3962cf" x="126.641013" y="86.102987"/>
<use xlink:href="#glyph-0-21-ae3962cf" x="134.425014" y="86.102987"/>
<use xlink:href="#glyph-0-3-ae3962cf" x="142.209011" y="86.102987"/>
<use xlink:href="#glyph-0-22-ae3962cf" x="149.993013" y="86.102987"/>
<use xlink:href="#glyph-0-5-ae3962cf" x="156.993011" y="86.102987"/>
<use xlink:href="#glyph-0-4-ae3962cf" x="160.101013" y="86.102987"/>
<use xlink:href="#glyph-0-23-ae3962cf" x="163.993012" y="86.102987"/>
<use xlink:href="#glyph-0-8-ae3962cf" x="170.993012" y="86.102987"/>
<use xlink:href="#glyph-0-22-ae3962cf" x="174.88501" y="86.102987"/>
<use xlink:href="#glyph-0-6-ae3962cf" x="181.88501" y="86.102987"/>
<use xlink:href="#glyph-0-11-ae3962cf" x="189.669007" y="86.102987"/>
<use xlink:href="#glyph-0-9-ae3962cf" x="197.453004" y="86.102987"/>
<use xlink:href="#glyph-0-9-ae3962cf" x="201.345002" y="86.102987"/>
<use xlink:href="#glyph-0-5-ae3962cf" x="205.237001" y="86.102987"/>
<use xlink:href="#glyph-0-22-ae3962cf" x="208.345002" y="86.102987"/>
<use xlink:href="#glyph-0-5-ae3962cf" x="215.345003" y="86.102987"/>
<use xlink:href="#glyph-0-11-ae3962cf" x="218.453004" y="86.102987"/>
<use xlink:href="#glyph-0-7-ae3962cf" x="226.237001" y="86.102987"/>
<use xlink:href="#glyph-0-4-ae3962cf" x="234.020998" y="86.102987"/>
<use xlink:href="#glyph-0-10-ae3962cf" x="237.912996" y="86.102987"/>
</g>
<path fill="none" stroke-width="1" stroke-linecap="butt" stroke-linejoin="miter" stroke="rgb(0%, 0%, 0%)" stroke-opacity="1" stroke-miterlimit="1.154701" d="M 80.5 361 L 704.5 361 "/>
<path fill="none" stroke-width="1" stroke-linecap="butt" stroke-linejoin="miter" stroke="rgb(0%, 0%, 0%)" stroke-opacity="1" stroke-miterlimit="1.154701" d="M 81 361.5 L 81 35.5 "/>
<path fill="none" stroke-width="1" stroke-linecap="butt" stroke-linejoin="miter" stroke="rgb(0%, 0%, 0%)" stroke-opacity="1" stroke-miterlimit="1.154701" d="M 80.5 36 L 704.5 36 "/>
<path fill="none" stroke-width="1" stroke-linecap="butt" stroke-linejoin="miter" stroke="rgb(0%, 0%, 0%)" stroke-opacity="1" stroke-miterlimit="1.154701" d="M 704 361.5 L 704 35.5 "/>
</svg>
